<?xml version="1.0" encoding="UTF-8" standalone="no"?>
<!-- Generator: Adobe Illustrator 22.1.0, SVG Export Plug-In . SVG Version: 6.00 Build 0)  -->

<svg
   xmlns:dc="http://purl.org/dc/elements/1.1/"
   xmlns:cc="http://creativecommons.org/ns#"
   xmlns:rdf="http://www.w3.org/1999/02/22-rdf-syntax-ns#"
   xmlns:svg="http://www.w3.org/2000/svg"
   xmlns="http://www.w3.org/2000/svg"
   xmlns:sodipodi="http://sodipodi.sourceforge.net/DTD/sodipodi-0.dtd"
   xmlns:inkscape="http://www.inkscape.org/namespaces/inkscape"
   version="1.1"
   id="Layer_1"
   x="0px"
   y="0px"
   viewBox="0 0 459.60001 459.60001"
   xml:space="preserve"
   sodipodi:docname="ACA_Logo.svg"
   width="459.60001"
   height="459.60001"
   inkscape:version="0.92.2 5c3e80d, 2017-08-06"><metadata
     id="metadata73"><rdf:RDF><cc:Work
         rdf:about=""><dc:format>image/svg+xml</dc:format><dc:type
           rdf:resource="http://purl.org/dc/dcmitype/StillImage" /><dc:title></dc:title></cc:Work></rdf:RDF></metadata><defs
     id="defs71" /><sodipodi:namedview
     pagecolor="#ffffff"
     bordercolor="#666666"
     borderopacity="1"
     objecttolerance="10"
     gridtolerance="10"
     guidetolerance="10"
     inkscape:pageopacity="0"
     inkscape:pageshadow="2"
     inkscape:window-width="640"
     inkscape:window-height="480"
     id="namedview69"
     showgrid="false"
     fit-margin-top="0"
     fit-margin-left="0"
     fit-margin-right="0"
     fit-margin-bottom="0"
     inkscape:zoom="0.38562092"
     inkscape:cx="231.59999"
     inkscape:cy="232.09999"
     inkscape:window-x="400"
     inkscape:window-y="226"
     inkscape:window-maximized="0"
     inkscape:current-layer="Layer_1" /><style
     type="text/css"
     id="style2">
	.st0{fill:#2C3178;}
	.st1{fill:#FFFFFF;}
	.st2{fill:#F4B02A;}
</style><g
     id="g66"
     transform="translate(-74.400009,-78.499985)"><g
       id="g54"><circle
         class="st0"
         cx="304.20001"
         cy="308.29999"
         r="229.8"
         id="circle4"
         style="fill:#2c3178" /><g
         id="g44"><path
           class="st1"
           d="m 220.8,204.7 -10.1,9.2 3,6.7 -7.1,6.5 -15.7,-38.5 6.5,-5.9 37,19.2 -7.1,6.5 z m -7.1,-4.1 -12,-6.8 -0.1,0.1 5.7,12.6 z"
           id="path6"
           inkscape:connector-curvature="0"
           style="fill:#ffffff" /><path
           class="st1"
           d="m 231.3,185.2 -9.7,-20.6 8.4,-4 9.4,20.1 c 2,4.3 5.8,7 9.9,5.1 3.6,-1.7 4.9,-5.9 2.6,-10.9 l -9.4,-20.1 8.4,-3.9 9.7,20.6 c 4.3,9.2 1.9,17.7 -7.5,22.1 -8.7,4.1 -17.2,1.4 -21.8,-8.4 z"
           id="path8"
           inkscape:connector-curvature="0"
           style="fill:#ffffff" /><path
           class="st1"
           d="m 273.5,179.1 4.5,-7.3 c 3.4,2.8 7,3.8 9.7,3.5 3.2,-0.4 4.2,-2 4,-3.7 -0.3,-2.1 -1.8,-2.9 -6.4,-3.8 -6.2,-1.3 -12.3,-3.3 -13.3,-10.9 -0.8,-6.4 4.2,-12.1 11.2,-13.1 5.1,-0.7 9.9,0.6 14.1,3.3 l -4.3,7.4 c -3.6,-2.2 -6.3,-3 -8.4,-2.7 -2.2,0.3 -3.4,1.6 -3.2,3.5 0.2,1.8 1.7,2.4 6.2,3.5 7.2,1.7 12.6,2.9 13.5,10.5 1.2,9.1 -6.3,13.5 -12.5,14.3 -5,0.5 -10.4,-0.8 -15.1,-4.5 z"
           id="path10"
           inkscape:connector-curvature="0"
           style="fill:#ffffff" /><path
           class="st1"
           d="m 321.6,151.9 -10.2,-1.4 1.1,-8.1 29.5,4.2 -1.1,8.1 -10.2,-1.4 -4.3,30.6 -9,-1.3 z"
           id="path12"
           inkscape:connector-curvature="0"
           style="fill:#ffffff" /><path
           class="st1"
           d="m 356.8,151.3 8.7,3.2 -13.5,36.7 -8.7,-3.2 z"
           id="path14"
           inkscape:connector-curvature="0"
           style="fill:#ffffff" /><path
           class="st1"
           d="m 414.2,183.8 -22.9,31.6 -7.7,-5.5 1.7,-27.7 v 0 l -13.7,19 -7.4,-5.4 22.9,-31.6 7.4,5.4 -1.8,28.4 14.1,-19.5 z"
           id="path16"
           inkscape:connector-curvature="0"
           style="fill:#ffffff" /><path
           class="st1"
           d="m 427.3,229.2 c 10.1,-4.8 21.4,-2.1 26.9,9.6 2.3,4.8 2.8,11.3 -0.1,17.4 l -8.1,-3.7 c 1.2,-2.7 1.9,-6.6 0.2,-10 -2.4,-5.2 -8.3,-7.7 -14.8,-4.6 -5.6,2.6 -8.3,8.5 -5.6,14.2 1.5,3.2 4.6,5.4 7.9,6.2 l -2.3,8.6 c -5.2,-1.2 -10.5,-4.8 -13.5,-11 -4.6,-9.8 -2.3,-21.2 9.4,-26.7 z"
           id="path18"
           inkscape:connector-curvature="0"
           style="fill:#ffffff" /><path
           class="st1"
           d="m 446.7,275.2 c 11.7,-0.9 20.7,6.6 21.6,18.5 0.9,11.6 -6.5,20.6 -18.4,21.5 -11.9,0.9 -20.7,-6.7 -21.6,-18.4 -0.9,-11.9 6.7,-20.7 18.4,-21.6 z m 2.4,30.4 c 6.5,-0.5 11.1,-5.3 10.6,-11.3 -0.5,-6.2 -5.9,-10.1 -12.3,-9.6 -6.4,0.5 -11.1,5.2 -10.6,11.4 0.5,6.1 5.9,10.1 12.3,9.5 z"
           id="path20"
           inkscape:connector-curvature="0"
           style="fill:#ffffff" /><path
           class="st1"
           d="m 466.8,333.7 -3.5,13.1 c -3.2,11.9 -13,17.4 -24.2,14.4 -11.1,-3 -16.9,-12.3 -13.5,-24.5 l 3.6,-13.2 z m -33.2,4.6 c -1.8,6.5 1.9,12 8,13.7 6.3,1.7 12.2,-1.3 13.7,-7.1 l 1.2,-4.5 -21.9,-5.9 z"
           id="path22"
           inkscape:connector-curvature="0"
           style="fill:#ffffff" /><path
           class="st1"
           d="m 450.1,381.7 -4.5,8.1 -34.2,-18.8 4.5,-8.1 z"
           id="path24"
           inkscape:connector-curvature="0"
           style="fill:#ffffff" /><path
           class="st1"
           d="m 412.9,430.5 -28.6,-26.6 6.4,-6.9 27.3,5.1 v 0 l -17.1,-16 6.3,-6.7 28.6,26.6 -6.3,6.7 -27.9,-5.3 17.6,16.4 z"
           id="path26"
           inkscape:connector-curvature="0"
           style="fill:#ffffff" /><path
           class="st1"
           d="m 388.1,425.5 c 5.3,10 2.9,21.2 -8.1,27 -5,2.6 -11.5,3.4 -17.2,1.2 l 3.2,-7.9 c 2.7,0.8 6.3,1 10,-0.9 4.9,-2.6 7,-8.5 3.6,-14.9 -3,-5.6 -8.9,-8.3 -14.7,-5.2 -2,1.1 -3.7,2.5 -5.1,4.6 l 2.1,3.9 6.6,-3.5 3.6,6.9 -14.4,7.6 -8.2,-15.5 c 1.8,-4 6.1,-8.7 11.5,-11.5 9.9,-5.3 21.1,-3 27.1,8.2 z"
           id="path28"
           inkscape:connector-curvature="0"
           style="fill:#ffffff" /><path
           class="st1"
           d="m 301.7,438.5 13.7,-0.4 2,-7 9.6,-0.3 -13.1,39.5 -8.8,0.3 -15.6,-38.6 9.6,-0.3 z m 2.7,7.7 4.7,13 h 0.1 l 3.8,-13.3 z"
           id="path30"
           inkscape:connector-curvature="0"
           style="fill:#ffffff" /><path
           class="st1"
           d="m 282.5,450.1 c -3,10.8 -12.4,17.5 -24.8,14 -5.1,-1.4 -10.4,-5.2 -13.1,-11.5 l 8.1,-3.7 c 1.2,2.7 3.7,5.7 7.4,6.8 5.5,1.5 11.3,-1.2 13.2,-8.2 1.7,-5.9 -1,-11.8 -7.1,-13.5 -3.4,-1 -7.1,-0.1 -9.8,1.9 l -5,-7.4 c 4.4,-3.1 10.5,-4.8 17.2,-3 10.3,2.9 17.4,12.2 13.9,24.6 z"
           id="path32"
           inkscape:connector-curvature="0"
           style="fill:#ffffff" /><path
           class="st1"
           d="m 225.3,412 11.4,7.6 5.8,-4.5 8,5.4 -33.7,24.4 -7.3,-4.9 9.8,-40.5 8,5.4 z m -2.3,7.9 -3.8,13.3 0.1,0.1 10.8,-8.5 z"
           id="path34"
           inkscape:connector-curvature="0"
           style="fill:#ffffff" /><path
           class="st1"
           d="m 184.8,419.5 -8.3,-10.7 c -7.6,-9.8 -6,-20.9 3.1,-28 9.1,-7 20,-6 27.7,4 l 8.4,10.8 z m 16.4,-29.2 c -4.1,-5.3 -10.7,-5.8 -15.7,-1.9 -5.2,4 -6.3,10.5 -2.6,15.2 l 2.9,3.7 17.9,-13.8 z"
           id="path36"
           inkscape:connector-curvature="0"
           style="fill:#ffffff" /><path
           class="st1"
           d="m 155.7,376 -9,-23.8 7.7,-2.9 5.8,15.4 7,-2.6 -4.6,-12.1 7.6,-2.9 4.6,12.1 6.6,-2.5 -6.2,-16.5 7.7,-2.9 9.4,24.9 z"
           id="path38"
           inkscape:connector-curvature="0"
           style="fill:#ffffff" /><path
           class="st1"
           d="m 140.7,287.1 39.1,-0.1 v 9.1 l -21.6,0.1 v 0.1 l 14.4,7.9 v 5.9 l -14.3,8 v 0.1 l 21.5,-0.1 v 9.1 l -39.1,0.1 v -9.2 l 20.6,-10.9 V 307 l -20.7,-10.7 z"
           id="path40"
           inkscape:connector-curvature="0"
           style="fill:#ffffff" /><path
           class="st1"
           d="m 157.6,232.2 16.1,19.8 15.9,6 -3.3,8.7 -15.9,-6 -25.1,4.1 3.7,-9.8 14.5,-1.8 0.1,-0.2 -9.7,-10.9 z"
           id="path42"
           inkscape:connector-curvature="0"
           style="fill:#ffffff" /></g><g
         id="g50"><path
           class="st2"
           d="m 304.5,409 c -55.7,0 -101.1,-45.3 -101.1,-101.1 0,-34.9 17.7,-66.9 47.3,-85.5 l 7.9,12.6 c -25.3,15.9 -40.3,43.2 -40.3,73 0,47.5 38.7,86.2 86.2,86.2 47.5,0 86.2,-38.7 86.2,-86.2 0,-29.8 -15.1,-57.1 -40.3,-73 l 7.9,-12.6 c 29.6,18.6 47.3,50.6 47.3,85.5 0,55.7 -45.4,101.1 -101.1,101.1 z"
           id="path46"
           inkscape:connector-curvature="0"
           style="fill:#f4b02a" /><path
           class="st2"
           d="m 304.2,511.8 c -112.2,0 -203.5,-91.3 -203.5,-203.5 0,-112.2 91.3,-203.5 203.5,-203.5 112.2,0 203.5,91.2 203.5,203.4 0,112.3 -91.3,203.6 -203.5,203.6 z m 0,-392.1 c -104,0 -188.5,84.6 -188.5,188.5 0,104 84.6,188.5 188.5,188.5 103.9,0 188.5,-84.6 188.5,-188.5 0,-103.9 -84.6,-188.5 -188.5,-188.5 z"
           id="path48"
           inkscape:connector-curvature="0"
           style="fill:#f4b02a" /></g><polygon
         class="st2"
         points="325.9,222.2 312.9,231.7 317.8,247 304.8,237.5 291.8,247 296.8,231.7 283.8,222.2 299.9,222.2 304.8,207 309.8,222.2 "
         id="polygon52"
         style="fill:#f4b02a" /></g><g
       id="g64"><g
         id="g62"><path
           class="st1"
           d="m 269.2,321.2 h -13.9 l -2.3,7.1 h -9.8 l 14.6,-39.8 h 9 l 14.7,39.8 h -9.8 z m -2.6,-8 -4.4,-13.4 h -0.1 l -4.3,13.4 z"
           id="path56"
           inkscape:connector-curvature="0"
           style="fill:#ffffff" /><path
           class="st1"
           d="m 287.9,308.5 c 0,-11.4 7.4,-20.6 20.5,-20.6 5.4,0 11.6,2.3 16,7.7 l -6.9,5.8 c -1.9,-2.3 -5.2,-4.6 -9.1,-4.6 -5.8,0 -10.7,4.3 -10.7,11.6 0,6.3 4.3,11.3 10.7,11.3 3.6,0 7,-1.9 9.1,-4.5 l 6.9,5.9 c -3.4,4.3 -9,7.6 -16,7.6 -11,0.1 -20.5,-7 -20.5,-20.2 z"
           id="path58"
           inkscape:connector-curvature="0"
           style="fill:#ffffff" /><path
           class="st1"
           d="m 355.8,321.2 h -13.9 l -2.3,7.1 h -9.8 l 14.6,-39.8 h 9 l 14.7,39.8 h -9.8 z m -2.6,-8 -4.4,-13.4 h -0.1 l -4.3,13.4 z"
           id="path60"
           inkscape:connector-curvature="0"
           style="fill:#ffffff" /></g></g></g></svg>