---
---
<?xml version="1.0" encoding="UTF-8"?>
<svg class="logo" xmlns="http://www.w3.org/2000/svg" width="100%" height="100%" viewBox="0 0 100% 100%">
  <g clip-path="url(#a)" transform="matrix(1.25 0 0 -1.25 -30.662 571.98)">
    <path fill="{{site.color}}" d="M407.007 316.65zm.001 0c5.1-15.978 7.796-32.878 7.796-50.227 0-90.678-73.773-164.45-164.451-164.45s-164.45 73.772-164.45 164.45c0 56.82 28.78 108.87 76.98 139.233l-32.707 51.928C64.023 415.916 24.53 344.456 24.53 266.424c0-124.522 101.305-225.826 225.823-225.826 34.633 0 67.459 7.857 96.82 21.851 81.087 81.858 89.826 181.18 59.835 254.201" />
    <path fill="{{site.lighter_color}}" d="M476.178 266.423c0 78.033-39.493 149.493-105.646 191.161l-32.708-51.928c33.483-21.093 57.581-52.655 69.183-89.006 29.991-73.022 21.253-172.343-59.834-254.2 76.204 36.317 129.005 114.086 129.005 203.973"/>
  </g>
  <text
    x="50%"
    y="50%"
    text-anchor="middle"
    alignment-baseline="central"
    fill="#ffffff"
    font-family="sans-serif"
    font-size="300px"
  >
    {{site.acronym}}
  </text>
</svg>
