<?xml version="1.0" encoding="UTF-8" standalone="no"?>
<!-- Created with Inkscape (http://www.inkscape.org/) -->

<svg
   xmlns:dc="http://purl.org/dc/elements/1.1/"
   xmlns:cc="http://creativecommons.org/ns#"
   xmlns:rdf="http://www.w3.org/1999/02/22-rdf-syntax-ns#"
   xmlns:svg="http://www.w3.org/2000/svg"
   xmlns="http://www.w3.org/2000/svg"
   xmlns:sodipodi="http://sodipodi.sourceforge.net/DTD/sodipodi-0.dtd"
   xmlns:inkscape="http://www.inkscape.org/namespaces/inkscape"
   id="svg2"
   version="1.1"
   inkscape:version="0.91 r13725"
   xml:space="preserve"
   width="564.56049"
   height="521.23248"
   viewBox="0 0 564.56049 521.23248"
   sodipodi:docname="ACA_standard_circle_acronym.ai.svg"
   inkscape:export-filename="/Users/user1/Desktop/Actual Damn Logos/aca.png"
   inkscape:export-xdpi="90"
   inkscape:export-ydpi="90"><metadata
     id="metadata8"><rdf:RDF><cc:Work
         rdf:about=""><dc:format>image/svg+xml</dc:format><dc:type
           rdf:resource="http://purl.org/dc/dcmitype/StillImage" /><dc:title></dc:title></cc:Work></rdf:RDF></metadata><defs
     id="defs6"><clipPath
       clipPathUnits="userSpaceOnUse"
       id="clipPath20"><path
         d="M 0,500 500,500 500,0 0,0 0,500 Z"
         id="path22"
         inkscape:connector-curvature="0" /></clipPath></defs><sodipodi:namedview
     pagecolor="#ffffff"
     bordercolor="#666666"
     borderopacity="1"
     objecttolerance="10"
     gridtolerance="10"
     guidetolerance="10"
     inkscape:pageopacity="0"
     inkscape:pageshadow="2"
     inkscape:window-width="733"
     inkscape:window-height="480"
     id="namedview4"
     showgrid="false"
     fit-margin-top="0"
     fit-margin-left="0"
     fit-margin-right="0"
     fit-margin-bottom="0"
     inkscape:zoom="0.3776"
     inkscape:cx="281.838"
     inkscape:cy="261.75225"
     inkscape:window-x="219"
     inkscape:window-y="180"
     inkscape:window-maximized="0"
     inkscape:current-layer="g10" /><g
     id="g10"
     inkscape:groupmode="layer"
     inkscape:label="ACA_standard_circle_acronym"
     transform="matrix(1.25,0,0,-1.25,-30.662,571.98025)"><g
       id="g12"
       transform="translate(177.4704,254.4802)"><path
         d="m 0,0 -7.767,24.879 -0.242,0 L -15.777,0 0,0 Z m 5.946,-19.297 -27.671,0 -4.367,-13.957 -24.152,0 31.311,86.169 22.089,0 31.192,-86.169 -24.032,0 -4.37,13.957 z"
         style="fill:#004667;fill-opacity:1;fill-rule:nonzero;stroke:none"
         id="path14"
         inkscape:connector-curvature="0" /></g><g
       id="g16"><g
         id="g18"
         clip-path="url(#clipPath20)"><g
           id="g24"
           transform="translate(210.2391,264.1883)"><path
             d="m 0,0 c 0,24.518 16.262,44.542 45.025,44.542 11.773,0 25.365,-4.975 35.076,-16.748 L 63.231,13.35 C 59.589,17.478 53.037,22.333 45.025,22.333 34.346,22.333 24.271,14.566 24.271,0 c 0,-11.771 7.768,-21.967 20.754,-21.967 6.796,0 14.08,3.642 18.206,8.739 l 16.87,-14.563 C 72.697,-36.894 60.318,-44.176 45.025,-44.176 20.995,-44.176 0,-28.763 0,0"
             style="fill:#004667;fill-opacity:1;fill-rule:nonzero;stroke:none"
             id="path26"
             inkscape:connector-curvature="0" /></g><g
           id="g28"
           transform="translate(342.2781,254.4802)"><path
             d="m 0,0 -7.767,24.879 -0.242,0 L -15.777,0 0,0 Z m 5.946,-19.297 -27.671,0 -4.367,-13.957 -24.152,0 31.311,86.169 22.089,0 31.192,-86.169 -24.032,0 -4.37,13.957 z"
             style="fill:#004667;fill-opacity:1;fill-rule:nonzero;stroke:none"
             id="path30"
             inkscape:connector-curvature="0" /></g><g
           id="g32"
           transform="translate(407.0075,316.6505)"><path
             d="M 0,0 0,0 0,0 Z"
             style="fill:#f8b232;fill-opacity:1;fill-rule:nonzero;stroke:none"
             id="path34"
             inkscape:connector-curvature="0" /></g><g
           id="g36"
           transform="translate(407.0076,316.6502)"><path
             d="m 0,0 c 5.1,-15.978 7.796,-32.878 7.796,-50.227 0,-90.678 -73.773,-164.451 -164.451,-164.451 -90.678,0 -164.449,73.773 -164.449,164.451 0,56.82 28.779,108.869 76.98,139.233 l -32.708,51.928 C -342.985,99.266 -382.478,27.806 -382.478,-50.227 c 0,-124.521 101.305,-225.825 225.823,-225.825 34.633,0 67.459,7.857 96.82,21.851 C 21.252,-172.343 29.991,-73.022 0,0"
             style="fill:#f8b232;fill-opacity:1;fill-rule:nonzero;stroke:none"
             id="path38"
             inkscape:connector-curvature="0" /></g><g
           id="g40"
           transform="translate(476.178,266.4232)"><path
             d="m 0,0 c 0,78.033 -39.493,149.493 -105.646,191.161 l -32.708,-51.928 c 33.483,-21.093 57.581,-52.655 69.183,-89.006 29.991,-73.022 21.253,-172.343 -59.834,-254.201 C -52.801,-167.656 0,-89.887 0,0"
             style="fill:#fddca9;fill-opacity:1;fill-rule:nonzero;stroke:none"
             id="path42"
             inkscape:connector-curvature="0" /></g></g></g></g></svg>