<?xml version="1.0" encoding="UTF-8" standalone="no"?>
<!-- Created with Inkscape (http://www.inkscape.org/) -->

<svg
   xmlns:dc="http://purl.org/dc/elements/1.1/"
   xmlns:cc="http://creativecommons.org/ns#"
   xmlns:rdf="http://www.w3.org/1999/02/22-rdf-syntax-ns#"
   xmlns:svg="http://www.w3.org/2000/svg"
   xmlns="http://www.w3.org/2000/svg"
   xmlns:sodipodi="http://sodipodi.sourceforge.net/DTD/sodipodi-0.dtd"
   xmlns:inkscape="http://www.inkscape.org/namespaces/inkscape"
   id="svg3355"
   version="1.1"
   inkscape:version="0.91 r13725"
   xml:space="preserve"
   width="564.5611"
   height="523.03827"
   viewBox="0 0 564.5611 523.03827"
   sodipodi:docname="austin-stamp.svg"><metadata
     id="metadata3361"><rdf:RDF><cc:Work
         rdf:about=""><dc:format>image/svg+xml</dc:format><dc:type
           rdf:resource="http://purl.org/dc/dcmitype/StillImage" /><dc:title></dc:title></cc:Work></rdf:RDF></metadata><defs
     id="defs3359"><clipPath
       clipPathUnits="userSpaceOnUse"
       id="clipPath3373"><path
         d="M 0,500 500,500 500,0 0,0 0,500 Z"
         id="path3375"
         inkscape:connector-curvature="0" /></clipPath></defs><sodipodi:namedview
     pagecolor="#ffffff"
     bordercolor="#666666"
     borderopacity="1"
     objecttolerance="10"
     gridtolerance="10"
     guidetolerance="10"
     inkscape:pageopacity="0"
     inkscape:pageshadow="2"
     inkscape:window-width="1282"
     inkscape:window-height="758"
     id="namedview3357"
     showgrid="false"
     fit-margin-top="0"
     fit-margin-left="0"
     fit-margin-right="0"
     fit-margin-bottom="0"
     inkscape:zoom="0.8784"
     inkscape:cx="282.28087"
     inkscape:cy="261.75325"
     inkscape:window-x="0"
     inkscape:window-y="0"
     inkscape:window-maximized="0"
     inkscape:current-layer="g3363" /><g
     id="g3363"
     inkscape:groupmode="layer"
     inkscape:label="ACA_standard_mark"
     transform="matrix(1.25,0,0,-1.25,-30.219125,573.785)"><g
       id="g3365"
       transform="translate(406.6533,316.6506)"><path
         d="M 0,0 0.001,0 0,0 Z"
         style="fill:#f8b232;fill-opacity:1;fill-rule:nonzero;stroke:none"
         id="path3367"
         inkscape:connector-curvature="0" /></g><g
       id="g3369"><g
         id="g3371"
         clip-path="url(#clipPath3373)"><g
           id="g3377"
           transform="translate(406.6543,316.6504)"><path
             d="m 0,0 c 5.1,-15.979 7.796,-32.878 7.796,-50.227 0,-90.678 -73.774,-164.452 -164.452,-164.452 -90.677,0 -164.448,73.774 -164.448,164.452 0,56.82 28.778,108.868 76.979,139.233 l -32.707,51.928 C -342.986,99.266 -382.479,27.806 -382.479,-50.227 c 0,-124.521 101.305,-225.826 225.823,-225.826 34.634,0 67.46,7.859 96.821,21.852 C 21.251,-172.343 29.99,-73.022 0,0"
             style="fill:#f8b232;fill-opacity:1;fill-rule:nonzero;stroke:none"
             id="path3379"
             inkscape:connector-curvature="0" /></g><g
           id="g3381"
           transform="translate(475.8242,266.4233)"><path
             d="m 0,0 c 0,78.033 -39.493,149.493 -105.646,191.161 l -32.708,-51.928 c 33.483,-21.093 57.581,-52.655 69.183,-89.006 29.991,-73.022 21.253,-172.343 -59.834,-254.201 C -52.801,-167.656 0,-89.887 0,0"
             style="fill:#fddca9;fill-opacity:1;fill-rule:nonzero;stroke:none"
             id="path3383"
             inkscape:connector-curvature="0" /></g><g
           id="g3385"
           transform="translate(316.8525,216)"><path
             d="m 0,0 -38.559,0 -6.586,44.103 -46.9,0 L -98.619,0 l -35.086,0 38.887,243.028 55.903,0 L 0,0 Z"
             style="fill:#4ebdec;fill-opacity:1;fill-rule:nonzero;stroke:none"
             id="path3387"
             inkscape:connector-curvature="0" /></g><g
           id="g3389"
           transform="translate(278.2939,216)"><path
             d="M 0,0 38.559,0 -0.356,243.028 -16.75,243 l 0,-198.897 10.164,0 L 0,0 Z"
             style="fill:#94d6ed;fill-opacity:1;fill-rule:nonzero;stroke:none"
             id="path3391"
             inkscape:connector-curvature="0" /></g></g></g></g></svg>