<?xml version="1.0" encoding="UTF-8" standalone="no"?>
<!-- Created with Inkscape (http://www.inkscape.org/) -->

<svg
   xmlns:dc="http://purl.org/dc/elements/1.1/"
   xmlns:cc="http://creativecommons.org/ns#"
   xmlns:rdf="http://www.w3.org/1999/02/22-rdf-syntax-ns#"
   xmlns:svg="http://www.w3.org/2000/svg"
   xmlns="http://www.w3.org/2000/svg"
   xmlns:sodipodi="http://sodipodi.sourceforge.net/DTD/sodipodi-0.dtd"
   xmlns:inkscape="http://www.inkscape.org/namespaces/inkscape"
   id="svg3806"
   version="1.1"
   inkscape:version="0.91 r13725"
   xml:space="preserve"
   width="508.815"
   height="508.81125"
   viewBox="0 0 508.815 508.81125"
   sodipodi:docname="dallas-stamp.svg"><metadata
     id="metadata3812"><rdf:RDF><cc:Work
         rdf:about=""><dc:format>image/svg+xml</dc:format><dc:type
           rdf:resource="http://purl.org/dc/dcmitype/StillImage" /><dc:title></dc:title></cc:Work></rdf:RDF></metadata><defs
     id="defs3810"><clipPath
       clipPathUnits="userSpaceOnUse"
       id="clipPath3820"><path
         d="M 0,576 576,576 576,0 0,0 0,576 Z"
         id="path3822"
         inkscape:connector-curvature="0" /></clipPath></defs><sodipodi:namedview
     pagecolor="#ffffff"
     bordercolor="#666666"
     borderopacity="1"
     objecttolerance="10"
     gridtolerance="10"
     guidetolerance="10"
     inkscape:pageopacity="0"
     inkscape:pageshadow="2"
     inkscape:window-width="697"
     inkscape:window-height="480"
     id="namedview3808"
     showgrid="false"
     inkscape:zoom="0.32777778"
     inkscape:cx="254.4075"
     inkscape:cy="254.4055"
     inkscape:window-x="0"
     inkscape:window-y="0"
     inkscape:window-maximized="0"
     inkscape:current-layer="g3814"
     fit-margin-top="0"
     fit-margin-left="0"
     fit-margin-right="0"
     fit-margin-bottom="0" /><g
     id="g3814"
     inkscape:groupmode="layer"
     inkscape:label="ACA_city_specific_decals"
     transform="matrix(1.25,0,0,-1.25,-105.5925,614.40575)"><g
       id="g3816"><g
         id="g3818"
         clip-path="url(#clipPath3820)"><g
           id="g3824"
           transform="translate(288.3398,187.2939)"><path
             d="m 0,0 c -55.724,0 -101.057,45.34 -101.057,101.063 0,34.918 17.675,66.899 47.286,85.547 l 7.922,-12.573 c -25.262,-15.91 -40.341,-43.196 -40.341,-72.974 0,-47.53 38.667,-86.197 86.19,-86.197 47.53,0 86.197,38.667 86.197,86.197 0,29.778 -15.079,57.064 -40.342,72.974 l 7.923,12.573 C 83.389,167.962 101.063,135.981 101.063,101.063 101.063,45.34 55.724,0 0,0"
             style="fill:#00b7d3;fill-opacity:1;fill-rule:nonzero;stroke:none"
             id="path3826"
             inkscape:connector-curvature="0" /></g><g
           id="g3828"
           transform="translate(200.6318,388.1001)"><path
             d="m 0,0 c 4.959,4.144 5.154,10.52 1.248,15.194 -4.042,4.838 -10.323,5.664 -14.755,1.962 L -16.962,14.269 -2.968,-2.479 0,0 Z m -28.73,14.721 10.001,8.356 C -9.583,30.719 1.188,29.641 8.322,21.104 15.421,12.608 14.857,2.129 5.508,-5.683 L -4.614,-14.141 -28.73,14.721 Z"
             style="fill:#00b7d3;fill-opacity:1;fill-rule:nonzero;stroke:none"
             id="path3830"
             inkscape:connector-curvature="0" /></g><g
           id="g3832"
           transform="translate(239.4297,418.5781)"><path
             d="M 0,0 -8.624,10.149 -8.723,10.109 -7.695,-3.153 0,0 Z m 5.108,-6.037 -12.207,-5.002 0.542,-7.049 -8.579,-3.516 -1.517,40.028 7.843,3.215 27.107,-29.542 -8.579,-3.515 -4.61,5.381 z"
             style="fill:#00b7d3;fill-opacity:1;fill-rule:nonzero;stroke:none"
             id="path3834"
             inkscape:connector-curvature="0" /></g><g
           id="g3836"
           transform="translate(261.5762,448.9414)"><path
             d="m 0,0 8.859,0.85 2.84,-29.583 15.714,1.508 0.755,-7.857 L 3.594,-37.441 0,0 Z"
             style="fill:#00b7d3;fill-opacity:1;fill-rule:nonzero;stroke:none"
             id="path3838"
             inkscape:connector-curvature="0" /></g><g
           id="g3840"
           transform="translate(304.6074,450.3213)"><path
             d="m 0,0 8.772,-1.5 -5.009,-29.292 15.56,-2.661 -1.331,-7.78 L -6.34,-37.072 0,0 Z"
             style="fill:#00b7d3;fill-opacity:1;fill-rule:nonzero;stroke:none"
             id="path3842"
             inkscape:connector-curvature="0" /></g><g
           id="g3844"
           transform="translate(354.9375,410.5317)"><path
             d="M 0,0 2.009,13.167 1.914,13.214 -7.428,3.744 0,0 Z m -1.21,-7.814 -11.78,5.937 -4.968,-5.03 -8.278,4.173 29.229,27.388 7.57,-3.815 -4.536,-39.836 -8.279,4.173 1.042,7.01 z"
             style="fill:#00b7d3;fill-opacity:1;fill-rule:nonzero;stroke:none"
             id="path3846"
             inkscape:connector-curvature="0" /></g><g
           id="g3848"
           transform="translate(368.5742,392.1187)"><path
             d="m 0,0 8.257,1.046 c -0.094,-4.235 1.405,-7.573 3.282,-9.367 2.22,-2.123 4.015,-1.933 5.186,-0.709 1.427,1.494 1.092,3.06 -1.02,7.059 -2.78,5.371 -5.011,11.24 0.078,16.562 4.32,4.518 11.595,4.232 16.608,-0.414 3.596,-3.366 5.532,-7.781 6.051,-12.603 l -8.176,-1.27 c -0.54,4.034 -1.569,6.484 -3.101,7.948 -1.531,1.465 -3.257,1.576 -4.502,0.274 -1.209,-1.189 -0.8,-2.753 1.088,-6.757 3.029,-6.414 5.458,-11.155 0.37,-16.477 C 18.007,-21.102 10.222,-18.13 5.857,-13.956 2.373,-10.625 0.092,-5.805 0,0"
             style="fill:#00b7d3;fill-opacity:1;fill-rule:nonzero;stroke:none"
             id="path3850"
             inkscape:connector-curvature="0" /></g><g
           id="g3852"
           transform="translate(417.3057,353.9917)"><path
             d="m 0,0 c 10.071,3.771 20.66,0.268 25.007,-11.342 1.803,-4.812 1.811,-11.032 -1.485,-16.734 l -7.444,4.17 c 1.402,2.448 2.341,6.137 1.04,9.611 -1.931,5.159 -7.368,8.045 -13.867,5.612 -5.558,-2.08 -8.61,-7.523 -6.475,-13.229 1.19,-3.175 4.009,-5.57 7.047,-6.582 l -2.925,-8.053 c -4.904,1.615 -9.719,5.412 -12.06,11.663 C -14.803,-15.159 -11.659,-4.366 0,0"
             style="fill:#00b7d3;fill-opacity:1;fill-rule:nonzero;stroke:none"
             id="path3854"
             inkscape:connector-curvature="0" /></g><g
           id="g3856"
           transform="translate(432.5283,279.541)"><path
             d="M 0,0 C 6.304,0.073 11.021,4.367 10.953,10.194 10.884,16.18 5.962,20.308 -0.236,20.235 -6.381,20.164 -11.259,15.921 -11.188,9.936 -11.12,4.108 -6.251,-0.073 0,0 m -0.344,29.452 c 11.336,0.132 19.427,-7.667 19.561,-19.161 0.131,-11.23 -7.562,-19.374 -19.11,-19.508 -11.495,-0.135 -19.428,7.825 -19.559,19.056 -0.134,11.494 7.825,19.482 19.108,19.613"
             style="fill:#00b7d3;fill-opacity:1;fill-rule:nonzero;stroke:none"
             id="path3858"
             inkscape:connector-curvature="0" /></g><g
           id="g3860"
           transform="translate(415.0918,247.04)"><path
             d="m 0,0 c -2.119,-6.105 0.996,-11.673 6.752,-13.671 5.955,-2.067 11.767,0.458 13.66,5.913 L 21.889,-3.504 1.269,3.653 0,0 Z M 32.212,2.166 27.939,-10.146 C 24.03,-21.407 14.238,-26.027 3.729,-22.379 -6.731,-18.748 -11.644,-9.473 -7.647,2.038 L -3.322,14.5 32.212,2.166 Z"
             style="fill:#00b7d3;fill-opacity:1;fill-rule:nonzero;stroke:none"
             id="path3862"
             inkscape:connector-curvature="0" /></g><g
           id="g3864"
           transform="translate(426.9072,202.1768)"><path
             d="m 0,0 -4.913,-7.483 -31.441,20.64 4.913,7.484 L 0,0 Z"
             style="fill:#00b7d3;fill-opacity:1;fill-rule:nonzero;stroke:none"
             id="path3866"
             inkscape:connector-curvature="0" /></g><g
           id="g3868"
           transform="translate(385.835,156.416)"><path
             d="m 0,0 -25.265,27.864 6.75,6.121 L 7.24,26.874 7.279,26.909 -7.879,43.628 -1.325,49.57 23.939,21.706 17.386,15.764 -8.996,23.093 6.554,5.942 0,0 Z"
             style="fill:#00b7d3;fill-opacity:1;fill-rule:nonzero;stroke:none"
             id="path3870"
             inkscape:connector-curvature="0" /></g><g
           id="g3872"
           transform="translate(360.543,162.1035)"><path
             d="m 0,0 c 4.261,-10.047 1.083,-20.601 -9.987,-25.295 -4.975,-2.11 -11.326,-2.329 -16.624,0.258 l 3.735,7.338 c 2.549,-0.99 5.983,-1.49 9.69,0.081 4.877,2.068 7.43,7.582 4.7,14.019 -2.378,5.609 -7.833,8.704 -13.687,6.223 -2.048,-0.869 -3.715,-2.094 -5.26,-4.015 l 1.675,-3.95 6.634,2.813 2.916,-6.877 -14.485,-6.143 -6.598,15.559 c 2.039,3.741 6.589,7.8 11.954,10.075 C -15.339,14.326 -4.777,11.267 0,0"
             style="fill:#00b7d3;fill-opacity:1;fill-rule:nonzero;stroke:none"
             id="path3874"
             inkscape:connector-curvature="0" /></g><g
           id="g3876"
           transform="translate(273.083,149.1709)"><path
             d="M 0,0 3.098,-12.953 3.203,-12.962 8.29,-0.671 0,0 Z m -1.822,7.694 13.147,-1.064 2.707,6.531 9.241,-0.747 -16.761,-36.379 -8.449,0.683 -10.801,38.609 9.24,-0.748 1.676,-6.885 z"
             style="fill:#00b7d3;fill-opacity:1;fill-rule:nonzero;stroke:none"
             id="path3878"
             inkscape:connector-curvature="0" /></g><g
           id="g3880"
           transform="translate(249.5361,148.2793)"><path
             d="m 0,0 c -4.063,-9.957 -13.821,-15.358 -25.299,-10.674 -4.757,1.943 -9.332,6.155 -11.284,12.445 l 8.115,2.639 c 0.847,-2.692 2.919,-5.884 6.353,-7.285 5.1,-2.082 10.909,-0.047 13.532,6.378 2.242,5.494 0.315,11.43 -5.324,13.731 -3.14,1.282 -6.812,0.835 -9.616,-0.709 l -3.932,7.612 c 4.514,2.507 10.57,3.467 16.75,0.945 C -1.091,21.158 4.705,11.526 0,0"
             style="fill:#00b7d3;fill-opacity:1;fill-rule:nonzero;stroke:none"
             id="path3882"
             inkscape:connector-curvature="0" /></g><g
           id="g3884"
           transform="translate(194.125,184.9277)"><path
             d="M 0,0 -5.131,-12.29 -5.05,-12.359 6.302,-5.427 0,0 Z m 3.062,7.291 9.995,-8.607 6.036,3.68 7.025,-6.049 -34.979,-19.514 -6.424,5.531 L -1.26,19.89 5.766,13.841 3.062,7.291 Z"
             style="fill:#00b7d3;fill-opacity:1;fill-rule:nonzero;stroke:none"
             id="path3886"
             inkscape:connector-curvature="0" /></g><g
           id="g3888"
           transform="translate(175.3369,217.4707)"><path
             d="m 0,0 c -3.288,5.563 -9.55,6.785 -14.795,3.686 -5.426,-3.209 -7.256,-9.276 -4.317,-14.247 L -16.82,-14.437 1.968,-3.33 0,0 Z M -19.167,-25.979 -25.8,-14.76 c -6.065,10.261 -3.262,20.719 6.315,26.38 9.531,5.635 19.784,3.387 25.984,-7.102 l 6.713,-11.356 -32.379,-19.141 z"
             style="fill:#00b7d3;fill-opacity:1;fill-rule:nonzero;stroke:none"
             id="path3890"
             inkscape:connector-curvature="0" /></g><g
           id="g3892"
           transform="translate(132.6592,238.6221)"><path
             d="m 0,0 -5.663,23.866 7.68,1.822 3.657,-15.412 7.01,1.663 -2.886,12.165 7.577,1.798 2.886,-12.165 6.65,1.578 -3.914,16.495 7.681,1.822 L 36.597,8.684 0,0 Z"
             style="fill:#00b7d3;fill-opacity:1;fill-rule:nonzero;stroke:none"
             id="path3894"
             inkscape:connector-curvature="0" /></g><g
           id="g3896"
           transform="translate(128.2256,323.2417)"><path
             d="m 0,0 37.425,-3.743 -0.875,-8.75 -20.663,2.067 -0.01,-0.106 13.051,-8.971 -0.565,-5.64 -14.516,-6.215 -0.011,-0.105 20.61,-2.061 -0.875,-8.75 -37.425,3.742 0.886,8.856 20.859,8.402 0.009,0.105 L -0.886,-8.856 0,0 Z"
             style="fill:#00b7d3;fill-opacity:1;fill-rule:nonzero;stroke:none"
             id="path3898"
             inkscape:connector-curvature="0" /></g><g
           id="g3900"
           transform="translate(148.1475,372.4175)"><path
             d="m 0,0 13.957,-20.253 14.817,-6.959 -3.806,-8.104 -14.817,6.959 -24.454,-2.093 4.302,9.159 14.062,0.653 0.089,0.192 L -4.37,-9.303 0,0 Z"
             style="fill:#00b7d3;fill-opacity:1;fill-rule:nonzero;stroke:none"
             id="path3902"
             inkscape:connector-curvature="0" /></g><g
           id="g3904"
           transform="translate(229.6631,280.0264)"><path
             d="m 0,0 c 3.16,0 5.238,2.429 5.238,5.413 0,3.102 -2.106,5.472 -4.828,5.472 l -2.223,0 L -1.813,0 0,0 Z m -7.198,15.831 7.491,0 c 6.555,0 10.769,-4.272 10.769,-10.418 0,-6.116 -3.951,-10.359 -10.681,-10.359 l -7.579,0 0,20.777 z"
             style="fill:#00b7d3;fill-opacity:1;fill-rule:nonzero;stroke:none"
             id="path3906"
             inkscape:connector-curvature="0" /></g><g
           id="g3908"
           transform="translate(257.6973,283.0986)"><path
             d="m 0,0 -1.872,5.999 -0.059,0 L -3.804,0 0,0 Z m 1.435,-4.652 -6.672,0 -1.054,-3.367 -5.823,0 7.55,20.777 5.326,0 7.52,-20.777 -5.794,0 -1.053,3.367 z"
             style="fill:#00b7d3;fill-opacity:1;fill-rule:nonzero;stroke:none"
             id="path3910"
             inkscape:connector-curvature="0" /></g><g
           id="g3912"
           transform="translate(272.71,295.8569)"><path
             d="m 0,0 5.589,0 0,-15.831 8.253,0 0,-4.946 L 0,-20.777 0,0 Z"
             style="fill:#00b7d3;fill-opacity:1;fill-rule:nonzero;stroke:none"
             id="path3914"
             inkscape:connector-curvature="0" /></g><g
           id="g3916"
           transform="translate(293.8389,295.8569)"><path
             d="m 0,0 5.589,0 0,-15.831 8.252,0 0,-4.946 L 0,-20.777 0,0 Z"
             style="fill:#00b7d3;fill-opacity:1;fill-rule:nonzero;stroke:none"
             id="path3918"
             inkscape:connector-curvature="0" /></g><g
           id="g3920"
           transform="translate(326.0869,283.0986)"><path
             d="m 0,0 -1.873,5.999 -0.059,0 L -3.805,0 0,0 Z m 1.434,-4.652 -6.672,0 -1.054,-3.367 -5.823,0 7.55,20.777 5.326,0 7.52,-20.777 -5.794,0 -1.053,3.367 z"
             style="fill:#00b7d3;fill-opacity:1;fill-rule:nonzero;stroke:none"
             id="path3922"
             inkscape:connector-curvature="0" /></g><g
           id="g3924"
           transform="translate(339.7822,278.124)"><path
             d="M 0,0 3.16,3.862 C 4.799,2.194 6.613,1.551 7.901,1.551 c 1.287,0 1.785,0.702 1.785,1.345 0,0.82 -0.41,1.259 -2.634,1.991 -3.16,1.083 -6.321,2.604 -6.321,6.847 0,3.541 2.957,6.204 6.936,6.291 2.867,0.059 5.413,-1.053 7.345,-2.779 l -3.073,-3.951 c -1.814,1.405 -2.926,1.873 -3.951,1.873 -0.994,0 -1.463,-0.498 -1.463,-1.229 0,-0.702 0.44,-1.258 2.546,-2.078 3.688,-1.404 6.468,-2.311 6.468,-6.32 0,-5.209 -4.36,-6.877 -7.843,-6.877 C 5.004,-3.336 2.224,-2.282 0,0"
             style="fill:#00b7d3;fill-opacity:1;fill-rule:nonzero;stroke:none"
             id="path3926"
             inkscape:connector-curvature="0" /></g><g
           id="g3928"
           transform="translate(264.7314,243.7275)"><path
             d="M 0,0 C 0,1.207 0.967,2.156 2.157,2.156 3.365,2.156 4.332,1.207 4.332,0 4.332,-1.191 3.365,-2.158 2.157,-2.158 0.967,-2.158 0,-1.191 0,0"
             style="fill:#00b7d3;fill-opacity:1;fill-rule:nonzero;stroke:none"
             id="path3930"
             inkscape:connector-curvature="0" /></g><g
           id="g3932"
           transform="translate(278.3145,247.9551)"><path
             d="m 0,0 -3.244,0 0,2.571 9.353,0 0,-2.571 -3.244,0 0,-9.682 L 0,-9.682 0,0 Z"
             style="fill:#00b7d3;fill-opacity:1;fill-rule:nonzero;stroke:none"
             id="path3934"
             inkscape:connector-curvature="0" /></g><g
           id="g3936"
           transform="translate(295.2969,242.2256)"><path
             d="m 0,0 -0.052,0 -2.45,-3.952 -3.366,0 3.918,6.161 -3.779,6.092 3.313,0 2.364,-3.848 0.052,0 2.364,3.848 3.28,0 -3.746,-6.092 3.901,-6.161 -3.365,0 L 0,0 Z"
             style="fill:#00b7d3;fill-opacity:1;fill-rule:nonzero;stroke:none"
             id="path3938"
             inkscape:connector-curvature="0" /></g><g
           id="g3940"
           transform="translate(306.9814,243.7275)"><path
             d="M 0,0 C 0,1.207 0.967,2.156 2.158,2.156 3.365,2.156 4.332,1.207 4.332,0 4.332,-1.191 3.365,-2.158 2.158,-2.158 0.967,-2.158 0,-1.191 0,0"
             style="fill:#00b7d3;fill-opacity:1;fill-rule:nonzero;stroke:none"
             id="path3942"
             inkscape:connector-curvature="0" /></g><g
           id="g3944"
           transform="translate(288,476.5366)"><path
             d="m 0,0 c -103.962,0 -188.539,-84.577 -188.539,-188.535 0,-103.962 84.577,-188.539 188.539,-188.539 103.962,0 188.539,84.577 188.539,188.539 C 188.539,-84.577 103.962,0 0,0 m 0,-392.061 c -112.225,0 -203.526,91.302 -203.526,203.526 0,112.221 91.301,203.523 203.526,203.523 112.225,0 203.526,-91.302 203.526,-203.523 0,-112.224 -91.301,-203.526 -203.526,-203.526"
             style="fill:#00b7d3;fill-opacity:1;fill-rule:nonzero;stroke:none"
             id="path3946"
             inkscape:connector-curvature="0" /></g><g
           id="g3948"
           transform="translate(288.6641,376.2817)"><path
             d="m 0,0 4.964,-15.275 16.061,0 -12.994,-9.441 4.963,-15.276 -12.994,9.441 -12.994,-9.441 4.964,15.276 -12.994,9.441 16.061,0 L 0,0 Z"
             style="fill:#00b7d3;fill-opacity:1;fill-rule:nonzero;stroke:none"
             id="path3950"
             inkscape:connector-curvature="0" /></g></g></g></g></svg>