<?xml version="1.0" encoding="UTF-8" standalone="no"?>
<!-- Created with Inkscape (http://www.inkscape.org/) -->

<svg
   xmlns:dc="http://purl.org/dc/elements/1.1/"
   xmlns:cc="http://creativecommons.org/ns#"
   xmlns:rdf="http://www.w3.org/1999/02/22-rdf-syntax-ns#"
   xmlns:svg="http://www.w3.org/2000/svg"
   xmlns="http://www.w3.org/2000/svg"
   xmlns:sodipodi="http://sodipodi.sourceforge.net/DTD/sodipodi-0.dtd"
   xmlns:inkscape="http://www.inkscape.org/namespaces/inkscape"
   id="svg2"
   version="1.1"
   inkscape:version="0.91 r13725"
   xml:space="preserve"
   width="655.05847"
   height="604.7851"
   viewBox="0 0 655.05847 604.7851"
   sodipodi:docname="dallas-logo-white.svg"
   inkscape:export-filename="/Users/user1/Desktop/Actual Damn Logos/dca.png"
   inkscape:export-xdpi="90"
   inkscape:export-ydpi="90"><metadata
     id="metadata8"><rdf:RDF><cc:Work
         rdf:about=""><dc:format>image/svg+xml</dc:format><dc:type
           rdf:resource="http://purl.org/dc/dcmitype/StillImage" /><dc:title></dc:title></cc:Work></rdf:RDF></metadata><defs
     id="defs6"><clipPath
       clipPathUnits="userSpaceOnUse"
       id="clipPath20"><path
         d="M 0,576 576,576 576,0 0,0 0,576 Z"
         id="path22"
         inkscape:connector-curvature="0" /></clipPath></defs><sodipodi:namedview
     pagecolor="#ffffff"
     bordercolor="#666666"
     borderopacity="1"
     objecttolerance="10"
     gridtolerance="10"
     guidetolerance="10"
     inkscape:pageopacity="0"
     inkscape:pageshadow="2"
     inkscape:window-width="926"
     inkscape:window-height="728"
     id="namedview4"
     showgrid="false"
     fit-margin-top="0"
     fit-margin-left="0"
     fit-margin-right="0"
     fit-margin-bottom="0"
     inkscape:zoom="0.32777778"
     inkscape:cx="74.308914"
     inkscape:cy="302.39287"
     inkscape:window-x="0"
     inkscape:window-y="0"
     inkscape:window-maximized="0"
     inkscape:current-layer="g18" /><g
     id="g10"
     inkscape:groupmode="layer"
     inkscape:label="DCA_solo_acronym"
     transform="matrix(1.25,0,0,-1.25,-32.47075,662.39225)"><g
       id="g12"
       transform="translate(469.7649,366.3891)"><path
         d="M 0,0 0,0.001 0,0 Z"
         style="fill:#00b7d3;fill-opacity:1;fill-rule:nonzero;stroke:none"
         id="path14"
         inkscape:connector-curvature="0" /></g><g
       id="g16"><g
         id="g18"
         clip-path="url(#clipPath20)"><g
           id="g24"
           transform="translate(469.7646,366.3887)"><path
             d="m 0,0 c 5.917,-18.539 9.046,-38.147 9.046,-58.278 0,-105.213 -85.599,-190.813 -190.812,-190.813 -105.213,0 -190.81,85.6 -190.81,190.813 0,65.928 33.392,126.32 89.32,161.551 l -37.951,60.252 c -76.757,-48.346 -122.581,-131.262 -122.581,-221.803 0,-144.481 117.544,-262.025 262.022,-262.025 40.185,0 78.272,9.118 112.34,25.355 C 24.658,-199.969 34.799,-84.727 0,0"
             style="fill:#00b7d3;fill-opacity:1;fill-rule:nonzero;stroke:none"
             id="path26"
             inkscape:connector-curvature="0" /></g><g
           id="g28"
           transform="translate(550.0234,308.1108)"><path
             d="m 0,0 c 0,90.541 -45.824,173.457 -122.581,221.803 l -37.951,-60.252 c 38.85,-24.474 66.811,-61.095 80.273,-103.273 C -45.46,-26.449 -55.6,-141.691 -149.685,-236.67 -61.265,-194.531 0,-104.296 0,0"
             style="fill:#9edae8;fill-opacity:1;fill-rule:nonzero;stroke:none"
             id="path30"
             inkscape:connector-curvature="0" /></g><g
           id="g32"
           transform="translate(180.7227,279.2119)"
           style="fill:#ffffff"><path
             d="m 0,0 c 15.199,0 25.191,11.682 25.191,26.037 0,14.918 -10.132,26.317 -23.221,26.317 l -10.696,0 L -8.726,0 0,0 Z m -34.621,76.138 36.028,0 c 31.525,0 51.79,-20.547 51.79,-50.101 0,-29.415 -18.999,-49.821 -51.368,-49.821 l -36.45,0 0,99.922 z"
             style="fill:#ffffff;fill-opacity:1;fill-rule:nonzero;stroke:none"
             id="path34"
             inkscape:connector-curvature="0" /></g><g
           id="g36"
           transform="translate(242.3633,305.249)"
           style="fill:#ffffff"><path
             d="m 0,0 c 0,28.428 18.858,51.649 52.213,51.649 13.651,0 29.414,-5.771 40.673,-19.421 L 73.323,15.48 C 69.101,20.266 61.501,25.895 52.213,25.895 39.828,25.895 28.147,16.888 28.147,0 c 0,-13.652 9.007,-25.474 24.066,-25.474 7.881,0 16.325,4.222 21.11,10.133 l 19.563,-16.888 c -8.586,-10.556 -22.941,-19 -40.673,-19 C 24.348,-51.229 0,-33.355 0,0"
             style="fill:#ffffff;fill-opacity:1;fill-rule:nonzero;stroke:none"
             id="path38"
             inkscape:connector-curvature="0" /></g><g
           id="g40"
           transform="translate(395.4844,293.9902)"
           style="fill:#ffffff"><path
             d="m 0,0 -9.007,28.85 -0.281,0 L -18.296,0 0,0 Z m 6.896,-22.378 -32.087,0 -5.067,-16.185 -28.007,0 36.311,99.923 25.613,0 36.169,-99.923 -27.865,0 -5.067,16.185 z"
             style="fill:#ffffff;fill-opacity:1;fill-rule:nonzero;stroke:none"
             id="path42"
             inkscape:connector-curvature="0" /></g></g></g></g></svg>