<?xml version="1.0" encoding="UTF-8" standalone="no"?>
<svg
   xmlns:dc="http://purl.org/dc/elements/1.1/"
   xmlns:cc="http://creativecommons.org/ns#"
   xmlns:rdf="http://www.w3.org/1999/02/22-rdf-syntax-ns#"
   xmlns:svg="http://www.w3.org/2000/svg"
   xmlns="http://www.w3.org/2000/svg"
   viewBox="0 0 495.33334 188.66667"
   height="188.66667"
   width="495.33334"
   xml:space="preserve"
   id="svg2"
   version="1.1"><metadata
     id="metadata8"><rdf:RDF><cc:Work
         rdf:about=""><dc:format>image/svg+xml</dc:format><dc:type
           rdf:resource="http://purl.org/dc/dcmitype/StillImage" /></cc:Work></rdf:RDF></metadata><defs
     id="defs6" /><g
     transform="matrix(1.3333333,0,0,-1.3333333,0,188.66667)"
     id="g10"><g
       transform="scale(0.1)"
       id="g12"><path
         id="path14"
         style="fill:#ffffff;fill-opacity:1;fill-rule:nonzero;stroke:none"
         d="m 491.723,536.867 h -62.832 v 342.309 h 239.23 V 821.105 H 491.723 V 738.027 H 646.578 V 679.973 H 491.723 V 536.867" /><path
         id="path16"
         style="fill:#ffffff;fill-opacity:1;fill-rule:nonzero;stroke:none"
         d="m 921.617,783.422 c 0,32.598 -27.379,42.43 -62.836,42.43 -35.461,0 -62.84,-9.832 -62.84,-42.43 0,-38.867 30.524,-45.109 62.84,-45.109 32.313,0 62.836,6.242 62.836,45.109 z m 9.422,-148.734 c 0,42.878 -38.148,50.914 -72.258,50.914 -34.113,0 -72.261,-8.036 -72.261,-50.914 0,-32.614 27.828,-46.008 72.261,-46.008 44.438,0 72.258,13.394 72.258,46.008 z M 724.578,630.66 c 0,46.457 23.34,72.813 48.926,83.078 -22.441,11.164 -39.945,37.52 -39.945,73.696 0,72.359 58.796,96.921 125.222,96.921 66.422,0 125.223,-24.562 125.223,-96.921 0,-36.176 -17.5,-62.532 -39.945,-73.696 25.582,-10.265 48.921,-36.621 48.921,-83.078 0,-63.859 -43.089,-100.051 -134.199,-100.051 -91.113,0 -134.203,36.192 -134.203,100.051" /><path
         id="path18"
         style="fill:#ffffff;fill-opacity:1;fill-rule:nonzero;stroke:none"
         d="m 710.934,1343.75 c -185.723,0 -368.235,-30.9 -527.786,-89.34 -10.027,-3.68 -18.671,-13.12 -23.125,-25.27 -57.871,-157.89 -88.4605,-338.277 -88.4605,-521.656 0,-183.382 30.5895,-363.765 88.4645,-521.664 4.45,-12.14 13.09,-21.582 23.121,-25.261 159.551,-58.45 342.055,-89.3402 527.786,-89.3402 185.746,0 368.256,30.9022 527.786,89.3402 10.03,3.679 18.67,13.121 23.12,25.261 57.88,157.899 88.47,338.282 88.47,521.664 0,183.379 -30.59,363.766 -88.47,521.656 -4.45,12.15 -13.09,21.59 -23.12,25.27 -159.55,58.44 -342.06,89.34 -527.786,89.34 z M 710.934,0 V 0 C 516.855,0 325.805,32.4219 158.422,93.7305 128.461,104.711 104.539,129.379 92.793,161.422 32.0898,327.039 0,515.871 0,707.484 c 0,191.61 32.0898,380.436 92.793,546.066 11.75,32.04 35.672,56.71 65.629,67.69 167.387,61.31 358.437,93.72 552.512,93.72 194.07,0 385.126,-32.41 552.506,-93.72 29.97,-10.98 53.89,-35.65 65.63,-67.69 60.71,-165.63 92.8,-354.456 92.8,-546.066 0,-191.613 -32.09,-380.445 -92.79,-546.062 -11.75,-32.043 -35.67,-56.711 -65.64,-67.6915 C 1096.08,32.4219 905.023,0.0117188 710.934,0" /><path
         id="path20"
         style="fill:#ffffff;fill-opacity:1;fill-rule:nonzero;stroke:none"
         d="m 1613.89,1195.45 h 136.76 v -37.65 h -88.49 v -56.04 h 70.02 v -36.18 h -70.02 v -82.123 h -48.27 v 211.993" /><path
         id="path22"
         style="fill:#ffffff;fill-opacity:1;fill-rule:nonzero;stroke:none"
         d="m 1830.45,1064.7 h 56.31 l -28.01,91.61 z m -0.3,130.75 h 62.87 l 69.12,-211.993 h -50.35 l -14.6,47.143 h -77.17 l -14.6,-47.143 h -45.29 l 70.02,211.993" /><path
         id="path24"
         style="fill:#ffffff;fill-opacity:1;fill-rule:nonzero;stroke:none"
         d="m 1978.76,1088.12 v 2.37 c 0,64.35 45.28,108.22 105.77,108.22 51.24,0 89.38,-24.9 94.44,-77.08 h -49.45 c -3.58,25.49 -17.88,39.13 -44.7,39.13 -33.66,0 -55.11,-26.09 -55.11,-69.97 v -2.37 c 0,-43.89 20.25,-69.38 55.41,-69.38 26.52,0 45,13.34 48.87,40.62 h 47.37 c -5.37,-52.48 -43.21,-79.469 -95.64,-79.469 -69.72,0 -106.96,42.699 -106.96,107.929" /><path
         id="path26"
         style="fill:#ffffff;fill-opacity:1;fill-rule:nonzero;stroke:none"
         d="m 2223,1195.45 h 138.85 v -37.36 h -90.88 v -49.52 h 72.7 v -34.98 h -72.7 v -52.78 h 95.64 V 983.457 H 2223 v 211.993" /><path
         id="path28"
         style="fill:#ffffff;fill-opacity:1;fill-rule:nonzero;stroke:none"
         d="m 2490.8,1016.66 c 23.84,0 34.56,10.68 34.56,29.95 v 1.19 c 0,19.57 -10.72,29.64 -36.94,29.64 h -30.69 v -60.78 z m -4.17,91.62 c 23.24,0 32.47,8.31 32.47,27.28 v 1.18 c 0,17.8 -10.13,25.8 -32.77,25.8 h -28.6 v -54.26 z m -75.98,87.17 h 83.72 c 46.49,0 70.62,-18.97 70.62,-55.15 v -1.19 c 0,-22.23 -10.73,-38.54 -34.57,-45.36 27.72,-5.63 42.61,-21.34 42.61,-49.8 v -1.19 c 0,-38.85 -25.62,-59.303 -74.78,-59.303 h -87.6 v 211.993" /><path
         id="path30"
         style="fill:#ffffff;fill-opacity:1;fill-rule:nonzero;stroke:none"
         d="m 2775.27,1088.71 v 2.38 c 0,41.21 -22.05,69.37 -59.29,69.37 -36.95,0 -59.29,-26.98 -59.29,-69.67 v -2.37 c 0,-43.29 25.02,-69.98 59.89,-69.98 36.05,0 58.69,27.58 58.69,70.27 z m -168.94,-0.59 v 2.37 c 0,63.15 46.49,107.92 109.65,107.92 64.06,0 109.64,-42.99 109.64,-106.73 v -2.38 c 0,-63.15 -43.5,-109.109 -109.94,-109.109 -66.74,0 -109.35,45.959 -109.35,107.929" /><path
         id="path32"
         style="fill:#ffffff;fill-opacity:1;fill-rule:nonzero;stroke:none"
         d="m 3028.74,1088.71 v 2.38 c 0,41.21 -22.05,69.37 -59.29,69.37 -36.94,0 -59.29,-26.98 -59.29,-69.67 v -2.37 c 0,-43.29 25.03,-69.98 59.89,-69.98 36.05,0 58.69,27.58 58.69,70.27 z m -168.93,-0.59 v 2.37 c 0,63.15 46.47,107.92 109.64,107.92 64.06,0 109.65,-42.99 109.65,-106.73 v -2.38 c 0,-63.15 -43.51,-109.109 -109.95,-109.109 -66.74,0 -109.34,45.959 -109.34,107.929" /><path
         id="path34"
         style="fill:#ffffff;fill-opacity:1;fill-rule:nonzero;stroke:none"
         d="m 3124.31,1195.45 h 48.27 v -91.32 l 74.49,91.62 h 51.24 L 3214,1095.24 3302.49,983.457 h -56.32 l -73.59,95.173 v -95.173 h -48.27 v 211.993" /><path
         id="path36"
         style="fill:#ffffff;fill-opacity:1;fill-rule:nonzero;stroke:none"
         d="m 1681.83,675.008 c 42.9,0 63.16,24.015 63.16,67.898 v 2.375 c 0,43.578 -18.77,67 -63.76,67 h -19.07 V 675.008 Z m -67.94,174.637 h 69.72 c 74.79,0 111.73,-40.321 111.73,-103.778 v -2.371 c 0,-63.449 -37.24,-105.848 -112.03,-105.848 h -69.42 v 211.997" /><path
         id="path38"
         style="fill:#ffffff;fill-opacity:1;fill-rule:nonzero;stroke:none"
         d="m 1840.56,849.645 h 138.84 v -37.364 h -90.87 V 762.77 h 72.7 v -34.985 h -72.7 v -52.777 h 95.64 v -37.36 h -143.61 v 211.997" /><path
         id="path40"
         style="fill:#ffffff;fill-opacity:1;fill-rule:nonzero;stroke:none"
         d="m 2010.93,849.645 h 50.94 l 50.66,-162.782 50.65,162.782 h 45.29 l -70.92,-211.997 h -55.41 l -71.21,211.997" /><path
         id="path42"
         style="fill:#ffffff;fill-opacity:1;fill-rule:nonzero;stroke:none"
         d="m 2247.43,849.645 h 138.84 V 812.281 H 2295.4 V 762.77 h 72.7 v -34.985 h -72.7 v -52.777 h 95.64 v -37.36 h -143.61 v 211.997" /><path
         id="path44"
         style="fill:#ffffff;fill-opacity:1;fill-rule:nonzero;stroke:none"
         d="m 2435.07,849.645 h 48.27 v -174.34 h 86.71 v -37.657 h -134.98 v 211.997" /><path
         id="path46"
         style="fill:#ffffff;fill-opacity:1;fill-rule:nonzero;stroke:none"
         d="m 2762.77,742.906 v 2.375 c 0,41.207 -22.05,69.371 -59.29,69.371 -36.94,0 -59.29,-26.972 -59.29,-69.668 v -2.375 c 0,-43.289 25.02,-69.976 59.89,-69.976 36.05,0 58.69,27.582 58.69,70.273 z m -168.93,-0.593 v 2.371 c 0,63.152 46.47,107.921 109.64,107.921 64.06,0 109.64,-42.992 109.64,-106.738 v -2.371 c 0,-63.152 -43.5,-109.109 -109.94,-109.109 -66.74,0 -109.34,45.957 -109.34,107.926" /><path
         id="path48"
         style="fill:#ffffff;fill-opacity:1;fill-rule:nonzero;stroke:none"
         d="m 2930.73,748.238 c 23.54,0 36.06,11.274 36.06,32.325 v 1.179 c 0,22.539 -13.12,31.434 -36.06,31.434 h -24.43 v -64.938 z m -72.4,101.407 h 73.6 c 51.84,0 81.33,-22.832 81.33,-67.606 v -1.18 c 0,-44.769 -31.28,-66.125 -79.84,-66.125 h -27.12 v -77.086 h -47.97 v 211.997" /><path
         id="path50"
         style="fill:#ffffff;fill-opacity:1;fill-rule:nonzero;stroke:none"
         d="m 3055.22,849.645 h 138.84 v -37.364 h -90.87 V 762.77 h 72.7 v -34.985 h -72.7 v -52.777 h 95.64 v -37.36 h -143.61 v 211.997" /><path
         id="path52"
         style="fill:#ffffff;fill-opacity:1;fill-rule:nonzero;stroke:none"
         d="m 3317.95,752.098 c 24.14,0 36.35,10.074 36.35,30.539 v 1.179 c 0,21.649 -13.11,29.063 -36.35,29.063 h -27.11 v -60.781 z m -75.08,97.547 h 76.27 c 50.35,0 82.24,-20.461 82.24,-64.34 v -1.188 c 0,-32.019 -18.77,-48.922 -43.8,-56.332 l 56.31,-90.137 h -51.25 l -50.94,81.829 h -20.86 v -81.829 h -47.97 v 211.997" /><path
         id="path54"
         style="fill:#ffffff;fill-opacity:1;fill-rule:nonzero;stroke:none"
         d="m 1602.87,396.5 v 2.379 c 0,64.34 45.29,108.215 105.78,108.215 51.24,0 89.37,-24.903 94.44,-77.082 h -49.46 c -3.58,25.496 -17.88,39.133 -44.69,39.133 -33.66,0 -55.12,-26.094 -55.12,-69.973 v -2.371 c 0,-43.879 20.26,-69.379 55.42,-69.379 26.51,0 44.98,13.34 48.86,40.617 h 47.37 c -5.36,-52.48 -43.2,-79.461 -95.64,-79.461 -69.72,0 -106.96,42.692 -106.96,107.922" /><path
         id="path56"
         style="fill:#ffffff;fill-opacity:1;fill-rule:nonzero;stroke:none"
         d="m 2005.02,397.102 v 2.367 c 0,41.211 -22.05,69.379 -59.29,69.379 -36.94,0 -59.29,-26.977 -59.29,-69.676 v -2.371 c 0,-43.289 25.03,-69.973 59.89,-69.973 36.05,0 58.69,27.57 58.69,70.274 z M 1836.09,396.5 v 2.379 c 0,63.148 46.47,107.918 109.64,107.918 64.06,0 109.65,-42.992 109.65,-106.738 v -2.368 c 0,-63.152 -43.51,-109.113 -109.95,-109.113 -66.74,0 -109.34,45.961 -109.34,107.922" /><path
         id="path58"
         style="fill:#ffffff;fill-opacity:1;fill-rule:nonzero;stroke:none"
         d="m 2100.58,503.84 h 56.02 l 81.04,-139.66 v 139.66 h 42.91 v -212 h -48.27 l -88.79,150.914 V 291.84 h -42.91 v 212" /><path
         id="path60"
         style="fill:#ffffff;fill-opacity:1;fill-rule:nonzero;stroke:none"
         d="m 2336.79,503.84 h 136.76 v -37.656 h -88.49 v -56.043 h 70.02 v -36.172 h -70.02 V 291.84 h -48.27 v 212" /><path
         id="path62"
         style="fill:#ffffff;fill-opacity:1;fill-rule:nonzero;stroke:none"
         d="m 2516.09,503.84 h 138.84 v -37.367 h -90.87 v -49.512 h 72.7 V 381.98 h -72.7 v -52.781 h 95.64 V 291.84 h -143.61 v 212" /><path
         id="path64"
         style="fill:#ffffff;fill-opacity:1;fill-rule:nonzero;stroke:none"
         d="m 2778.82,406.289 c 24.14,0 36.35,10.074 36.35,30.539 v 1.184 c 0,21.644 -13.11,29.058 -36.35,29.058 h -27.11 v -60.781 z m -75.08,97.551 h 76.27 c 50.36,0 82.24,-20.465 82.24,-64.344 v -1.187 c 0,-32.02 -18.77,-48.918 -43.8,-56.329 l 56.31,-90.14 h -51.25 l -50.95,81.832 h -20.85 V 291.84 h -47.97 v 212" /><path
         id="path66"
         style="fill:#ffffff;fill-opacity:1;fill-rule:nonzero;stroke:none"
         d="m 2914.31,503.84 h 138.85 v -37.367 h -90.87 v -49.512 h 72.7 V 381.98 h -72.7 v -52.781 h 95.64 V 291.84 h -143.62 v 212" /><path
         id="path68"
         style="fill:#ffffff;fill-opacity:1;fill-rule:nonzero;stroke:none"
         d="m 3101.97,503.84 h 56.02 l 81.04,-139.66 v 139.66 h 42.9 v -212 h -48.27 l -88.79,150.914 V 291.84 h -42.9 v 212" /><path
         id="path70"
         style="fill:#ffffff;fill-opacity:1;fill-rule:nonzero;stroke:none"
         d="m 3327.15,396.5 v 2.379 c 0,64.34 45.29,108.215 105.77,108.215 51.24,0 89.38,-24.903 94.45,-77.082 h -49.46 c -3.58,25.496 -17.88,39.133 -44.69,39.133 -33.67,0 -55.12,-26.094 -55.12,-69.973 v -2.371 c 0,-43.879 20.26,-69.379 55.41,-69.379 26.52,0 44.99,13.34 48.87,40.617 h 47.37 c -5.36,-52.48 -43.2,-79.461 -95.64,-79.461 -69.72,0 -106.96,42.692 -106.96,107.922" /><path
         id="path72"
         style="fill:#ffffff;fill-opacity:1;fill-rule:nonzero;stroke:none"
         d="m 3571.39,503.84 h 138.84 v -37.367 h -90.87 v -49.512 h 72.7 V 381.98 h -72.7 V 329.199 H 3715 V 291.84 h -143.61 v 212" /></g></g></svg>