<?xml version="1.0" encoding="UTF-8" standalone="no"?>
<!-- Created with Inkscape (http://www.inkscape.org/) -->

<svg
   xmlns:dc="http://purl.org/dc/elements/1.1/"
   xmlns:cc="http://creativecommons.org/ns#"
   xmlns:rdf="http://www.w3.org/1999/02/22-rdf-syntax-ns#"
   xmlns:svg="http://www.w3.org/2000/svg"
   xmlns="http://www.w3.org/2000/svg"
   xmlns:sodipodi="http://sodipodi.sourceforge.net/DTD/sodipodi-0.dtd"
   xmlns:inkscape="http://www.inkscape.org/namespaces/inkscape"
   id="svg3971"
   version="1.1"
   inkscape:version="0.91 r13725"
   xml:space="preserve"
   width="508.815"
   height="508.81125"
   viewBox="0 0 508.815 508.81125"
   sodipodi:docname="houston-stamp.svg"><metadata
     id="metadata3977"><rdf:RDF><cc:Work
         rdf:about=""><dc:format>image/svg+xml</dc:format><dc:type
           rdf:resource="http://purl.org/dc/dcmitype/StillImage" /><dc:title></dc:title></cc:Work></rdf:RDF></metadata><defs
     id="defs3975"><clipPath
       clipPathUnits="userSpaceOnUse"
       id="clipPath3985"><path
         d="M 0,576 576,576 576,0 0,0 0,576 Z"
         id="path3987"
         inkscape:connector-curvature="0" /></clipPath></defs><sodipodi:namedview
     pagecolor="#ffffff"
     bordercolor="#666666"
     borderopacity="1"
     objecttolerance="10"
     gridtolerance="10"
     guidetolerance="10"
     inkscape:pageopacity="0"
     inkscape:pageshadow="2"
     inkscape:window-width="1280"
     inkscape:window-height="756"
     id="namedview3973"
     showgrid="false"
     inkscape:zoom="0.65555556"
     inkscape:cx="6.2336095"
     inkscape:cy="263.32901"
     inkscape:window-x="0"
     inkscape:window-y="0"
     inkscape:window-maximized="0"
     inkscape:current-layer="g3979"
     fit-margin-top="0"
     fit-margin-left="0"
     fit-margin-right="0"
     fit-margin-bottom="0" /><g
     id="g3979"
     inkscape:groupmode="layer"
     inkscape:label="ACA_city_specific_decals"
     transform="matrix(1.25,0,0,-1.25,-105.5925,614.40575)"><g
       id="g3981"><g
         id="g3983"
         clip-path="url(#clipPath3985)"><g
           id="g3989"
           transform="translate(288.3398,187.2939)"><path
             d="m 0,0 c -55.724,0 -101.057,45.34 -101.057,101.063 0,34.918 17.675,66.899 47.286,85.547 l 7.922,-12.573 c -25.262,-15.91 -40.341,-43.196 -40.341,-72.974 0,-47.53 38.667,-86.197 86.19,-86.197 47.53,0 86.197,38.667 86.197,86.197 0,29.778 -15.079,57.064 -40.342,72.974 l 7.923,12.573 C 83.389,167.962 101.063,135.981 101.063,101.063 101.063,45.34 55.724,0 0,0"
             style="fill:#f0492e;fill-opacity:1;fill-rule:nonzero;stroke:none"
             id="path3991"
             inkscape:connector-curvature="0" /></g><g
           id="g3993"
           transform="translate(151.5186,378.2725)"><path
             d="m 0,0 5.606,6.94 12.145,-9.811 8.342,10.326 -12.144,9.811 5.64,6.981 29.327,-23.693 -5.64,-6.981 -11.028,8.91 -8.343,-10.326 11.029,-8.91 -5.607,-6.939 L 0,0 Z"
             style="fill:#f0492e;fill-opacity:1;fill-rule:nonzero;stroke:none"
             id="path3995"
             inkscape:connector-curvature="0" /></g><g
           id="g3997"
           transform="translate(219.0928,414.9717)"><path
             d="m 0,0 c -3.41,5.32 -9.566,7.05 -14.483,3.898 -5.051,-3.238 -5.947,-9.615 -2.594,-14.845 3.325,-5.186 9.521,-7.079 14.573,-3.841 C 2.413,-11.636 3.382,-5.275 0,0 m -24.855,-15.934 c -6.132,9.566 -3.799,20.587 5.901,26.806 9.477,6.075 20.485,3.86 26.732,-5.886 6.219,-9.7 3.665,-20.672 -5.811,-26.748 -9.701,-6.218 -20.718,-3.694 -26.822,5.828"
             style="fill:#f0492e;fill-opacity:1;fill-rule:nonzero;stroke:none"
             id="path3999"
             inkscape:connector-curvature="0" /></g><g
           id="g4001"
           transform="translate(238.3975,420.9478)"><path
             d="m 0,0 -5.414,21.307 8.697,2.21 5.27,-20.741 c 1.137,-4.478 4.254,-7.685 8.474,-6.613 3.757,0.955 5.765,4.697 4.444,9.895 l -5.27,20.741 8.647,2.197 5.413,-21.307 C 32.68,-1.832 28.807,-9.445 19.08,-11.917 10.074,-14.206 2.575,-10.139 0,0"
             style="fill:#f0492e;fill-opacity:1;fill-rule:nonzero;stroke:none"
             id="path4003"
             inkscape:connector-curvature="0" /></g><g
           id="g4005"
           transform="translate(277.418,419.2402)"><path
             d="m 0,0 5.415,6.347 c 2.79,-3.203 6.153,-4.666 8.755,-4.731 3.078,-0.075 4.28,1.276 4.322,2.975 0.051,2.07 -1.254,3.005 -5.518,4.545 -5.685,2.105 -11.299,4.952 -11.117,12.331 0.154,6.265 5.741,10.961 12.591,10.898 4.939,-0.068 9.353,-2.036 12.991,-5.26 l -5.206,-6.458 c -3.122,2.626 -5.537,3.749 -7.661,3.801 -2.123,0.052 -3.477,-1.03 -3.522,-2.835 -0.095,-1.697 1.264,-2.581 5.366,-4.276 C 22.989,14.626 27.989,12.75 27.807,5.371 27.589,-3.495 19.812,-6.543 13.759,-6.395 8.929,-6.275 3.986,-4.241 0,0"
             style="fill:#f0492e;fill-opacity:1;fill-rule:nonzero;stroke:none"
             id="path4007"
             inkscape:connector-curvature="0" /></g><g
           id="g4009"
           transform="translate(326.0205,438.6274)"><path
             d="m 0,0 -9.613,2.687 2.13,7.62 L 20.234,2.56 18.104,-5.06 8.49,-2.373 0.472,-31.062 -8.018,-28.689 0,0 Z"
             style="fill:#f0492e;fill-opacity:1;fill-rule:nonzero;stroke:none"
             id="path4011"
             inkscape:connector-curvature="0" /></g><g
           id="g4013"
           transform="translate(373.0684,405.2778)"><path
             d="m 0,0 c 3.328,5.371 2.234,11.671 -2.731,14.747 -5.1,3.16 -11.24,1.217 -14.511,-4.064 C -20.486,5.447 -19.521,-0.96 -14.421,-4.12 -9.456,-7.196 -3.3,-5.326 0,0 m -25.097,15.549 c 5.986,9.659 16.934,12.308 26.729,6.239 C 11.2,15.859 13.95,4.974 7.854,-4.866 1.785,-14.661 -9.215,-17.09 -18.783,-11.161 c -9.796,6.068 -12.27,17.097 -6.314,26.71"
             style="fill:#f0492e;fill-opacity:1;fill-rule:nonzero;stroke:none"
             id="path4015"
             inkscape:connector-curvature="0" /></g><g
           id="g4017"
           transform="translate(424.708,379.0454)"><path
             d="m 0,0 -29.131,-23.929 -5.797,7.056 8.379,25.436 -0.033,0.041 -17.479,-14.358 -5.628,6.852 29.13,23.929 5.628,-6.852 L -23.559,-7.877 -5.629,6.852 0,0 Z"
             style="fill:#f0492e;fill-opacity:1;fill-rule:nonzero;stroke:none"
             id="path4019"
             inkscape:connector-curvature="0" /></g><g
           id="g4021"
           transform="translate(423.96,340.062)"><path
             d="m 0,0 c 10.442,2.672 20.617,-1.959 23.697,-13.998 1.277,-4.989 0.615,-11.188 -3.283,-16.515 l -6.969,4.958 c 1.661,2.289 2.993,5.863 2.073,9.465 -1.369,5.35 -6.476,8.812 -13.214,7.087 -5.762,-1.474 -9.392,-6.568 -7.878,-12.484 0.843,-3.292 3.394,-5.983 6.312,-7.319 l -3.782,-7.71 c -4.713,2.138 -9.102,6.441 -10.762,12.923 C -16.385,-13.51 -12.09,-3.093 0,0"
             style="fill:#f0492e;fill-opacity:1;fill-rule:nonzero;stroke:none"
             id="path4023"
             inkscape:connector-curvature="0" /></g><g
           id="g4025"
           transform="translate(431.6553,267.5625)"><path
             d="M 0,0 C 6.304,-0.449 11.371,3.449 11.786,9.275 12.212,15.26 7.637,19.791 1.44,20.232 -4.703,20.669 -9.927,16.836 -10.353,10.852 -10.768,5.025 -6.249,0.444 0,0 m 2.097,29.448 c 11.334,-0.807 18.769,-9.268 17.952,-20.76 -0.8,-11.23 -9.158,-18.726 -20.704,-17.904 -11.494,0.819 -18.759,9.427 -17.96,20.655 0.818,11.493 9.43,18.812 20.712,18.009"
             style="fill:#f0492e;fill-opacity:1;fill-rule:nonzero;stroke:none"
             id="path4027"
             inkscape:connector-curvature="0" /></g><g
           id="g4029"
           transform="translate(412.7383,239.418)"><path
             d="m 0,0 c -2.48,-5.985 0.308,-11.739 5.948,-14.077 5.838,-2.42 11.801,-0.236 14.018,5.111 L 21.694,-4.797 1.484,3.581 0,0 Z M 32.358,0.268 27.356,-11.8 C 22.781,-22.837 12.712,-26.883 2.41,-22.613 -7.842,-18.363 -12.209,-8.792 -7.533,2.49 L -2.47,14.704 32.358,0.268 Z"
             style="fill:#f0492e;fill-opacity:1;fill-rule:nonzero;stroke:none"
             id="path4031"
             inkscape:connector-curvature="0" /></g><g
           id="g4033"
           transform="translate(424.0068,196.9229)"><path
             d="m 0,0 -5.203,-7.311 -30.716,21.86 5.204,7.31 L 0,0 Z"
             style="fill:#f0492e;fill-opacity:1;fill-rule:nonzero;stroke:none"
             id="path4035"
             inkscape:connector-curvature="0" /></g><g
           id="g4037"
           transform="translate(384.2676,154.8291)"><path
             d="m 0,0 -24.934,28.276 6.85,6.04 25.713,-7.484 0.04,0.035 -14.96,16.966 6.651,5.864 L 24.293,21.421 17.643,15.557 -8.695,23.269 6.65,5.864 0,0 Z"
             style="fill:#f0492e;fill-opacity:1;fill-rule:nonzero;stroke:none"
             id="path4039"
             inkscape:connector-curvature="0" /></g><g
           id="g4041"
           transform="translate(361.9736,162.5039)"><path
             d="m 0,0 c 4.369,-10.028 1.289,-20.638 -9.76,-25.453 -4.966,-2.164 -11.329,-2.446 -16.664,0.094 l 3.671,7.391 c 2.565,-0.967 6.012,-1.434 9.711,0.178 4.867,2.122 7.372,7.673 4.571,14.099 -2.439,5.597 -7.938,8.645 -13.779,6.099 -2.045,-0.89 -3.703,-2.135 -5.232,-4.075 l 1.718,-3.943 6.62,2.884 2.991,-6.862 -14.456,-6.301 -6.768,15.528 c 2.006,3.77 6.527,7.883 11.882,10.217 C -15.517,14.205 -4.901,11.244 0,0"
             style="fill:#f0492e;fill-opacity:1;fill-rule:nonzero;stroke:none"
             id="path4043"
             inkscape:connector-curvature="0" /></g><g
           id="g4045"
           transform="translate(280.9268,148.2129)"><path
             d="M 0,0 3.836,-12.786 3.942,-12.789 8.334,-0.2 0,0 Z m -2.261,7.597 13.218,-0.318 2.338,6.69 9.289,-0.224 -14.705,-37.357 -8.493,0.204 -13.004,38.022 9.289,-0.222 2.068,-6.795 z"
             style="fill:#f0492e;fill-opacity:1;fill-rule:nonzero;stroke:none"
             id="path4047"
             inkscape:connector-curvature="0" /></g><g
           id="g4049"
           transform="translate(260.7139,145.292)"><path
             d="m 0,0 c -3.262,-10.273 -12.576,-16.453 -24.42,-12.694 -4.909,1.558 -9.818,5.4 -12.274,11.528 l 7.896,3.288 c 1.063,-2.622 3.39,-5.644 6.933,-6.768 5.263,-1.671 10.903,0.828 13.008,7.458 1.799,5.668 -0.602,11.445 -6.422,13.292 -3.239,1.028 -6.872,0.287 -9.551,-1.481 l -4.538,7.29 c 4.308,2.866 10.283,4.313 16.66,2.288 C -2.788,21.053 3.775,11.895 0,0"
             style="fill:#f0492e;fill-opacity:1;fill-rule:nonzero;stroke:none"
             id="path4051"
             inkscape:connector-curvature="0" /></g><g
           id="g4053"
           transform="translate(205.0049,175.5312)"><path
             d="m 0,0 -3.859,-12.78 0.088,-0.061 10.61,8.073 L 0,0 Z M 2.308,7.582 13.154,0.021 18.797,4.31 26.42,-1.004 -6.464,-24.039 -13.434,-19.181 -3.289,19.703 4.334,14.39 2.308,7.582 Z"
             style="fill:#f0492e;fill-opacity:1;fill-rule:nonzero;stroke:none"
             id="path4055"
             inkscape:connector-curvature="0" /></g><g
           id="g4057"
           transform="translate(184.9385,203.5391)"><path
             d="m 0,0 c -3.994,5.1 -10.376,5.497 -15.183,1.731 -4.973,-3.895 -6.001,-10.163 -2.432,-14.718 l 2.783,-3.554 L 2.391,-3.052 0,0 Z m -15.658,-28.316 -8.055,10.283 c -7.366,9.405 -5.944,20.163 2.833,27.039 8.737,6.843 19.218,5.946 26.749,-3.668 L 14.021,-5.07 -15.658,-28.316 Z"
             style="fill:#f0492e;fill-opacity:1;fill-rule:nonzero;stroke:none"
             id="path4059"
             inkscape:connector-curvature="0" /></g><g
           id="g4061"
           transform="translate(141.374,215.834)"><path
             d="m 0,0 -9.165,22.814 7.342,2.95 5.919,-14.733 6.701,2.692 -4.672,11.629 7.243,2.91 4.672,-11.629 6.356,2.554 -6.334,15.767 7.341,2.949 L 34.984,14.055 0,0 Z"
             style="fill:#f0492e;fill-opacity:1;fill-rule:nonzero;stroke:none"
             id="path4063"
             inkscape:connector-curvature="0" /></g><g
           id="g4065"
           transform="translate(124.1563,295.2397)"><path
             d="m 0,0 37.602,2.744 0.641,-8.791 -20.761,-1.515 0.008,-0.107 14.434,-6.614 0.413,-5.666 -13.267,-8.635 0.008,-0.106 20.708,1.511 0.642,-8.792 -37.603,-2.744 -0.649,8.897 19.152,11.887 -0.008,0.106 L 0.648,-8.897 0,0 Z"
             style="fill:#f0492e;fill-opacity:1;fill-rule:nonzero;stroke:none"
             id="path4067"
             inkscape:connector-curvature="0" /></g><g
           id="g4069"
           transform="translate(134.0264,343.6436)"><path
             d="m 0,0 17.673,-17.187 15.924,-3.953 -2.161,-8.71 -15.925,3.953 -23.633,-6.828 2.443,9.844 13.697,3.384 0.05,0.206 L -2.481,-9.998 0,0 Z"
             style="fill:#f0492e;fill-opacity:1;fill-rule:nonzero;stroke:none"
             id="path4071"
             inkscape:connector-curvature="0" /></g><g
           id="g4073"
           transform="translate(220.1094,295.0889)"><path
             d="m 0,0 5.004,0 0,-7.375 5.576,0 0,7.375 5.029,0 0,-18.503 -5.029,0 0,6.75 -5.576,0 0,-6.75 -5.004,0 L 0,0 Z"
             style="fill:#f0492e;fill-opacity:1;fill-rule:nonzero;stroke:none"
             id="path4075"
             inkscape:connector-curvature="0" /></g><g
           id="g4077"
           transform="translate(254.1973,285.8379)"><path
             d="m 0,0 c 0,2.71 -1.798,4.898 -4.431,4.898 -2.605,0 -4.455,-2.163 -4.455,-4.898 0,-2.737 1.85,-4.899 4.455,-4.899 C -1.798,-4.899 0,-2.737 0,0 m -14.046,0 c 0,5.628 3.935,9.537 9.615,9.537 5.629,0 9.617,-3.856 9.617,-9.537 0,-5.655 -3.988,-9.512 -9.617,-9.512 -5.68,0 -9.615,3.883 -9.615,9.512"
             style="fill:#f0492e;fill-opacity:1;fill-rule:nonzero;stroke:none"
             id="path4079"
             inkscape:connector-curvature="0" /></g><g
           id="g4081"
           transform="translate(263.6074,284.3516)"><path
             d="m 0,0 0,10.737 5.003,0 0,-10.45 c 0,-1.955 0.859,-3.7 2.763,-3.7 1.641,0 2.866,1.329 2.866,3.7 l 0,10.45 4.977,0 0,-10.737 c 0,-4.847 -2.762,-8.025 -7.843,-8.025 C 3.127,-8.025 0,-5.212 0,0"
             style="fill:#f0492e;fill-opacity:1;fill-rule:nonzero;stroke:none"
             id="path4083"
             inkscape:connector-curvature="0" /></g><g
           id="g4085"
           transform="translate(282.8926,279.2969)"><path
             d="M 0,0 2.814,3.439 C 4.274,1.954 5.89,1.381 7.036,1.381 c 1.147,0 1.59,0.625 1.59,1.198 0,0.73 -0.365,1.121 -2.346,1.773 -2.814,0.963 -5.629,2.319 -5.629,6.097 0,3.154 2.633,5.525 6.177,5.603 2.554,0.052 4.82,-0.938 6.541,-2.476 l -2.736,-3.517 c -1.616,1.25 -2.607,1.667 -3.519,1.667 -0.885,0 -1.302,-0.443 -1.302,-1.094 0,-0.626 0.39,-1.121 2.267,-1.851 3.283,-1.251 5.759,-2.058 5.759,-5.629 0,-4.638 -3.883,-6.123 -6.984,-6.123 C 4.456,-2.971 1.98,-2.033 0,0"
             style="fill:#f0492e;fill-opacity:1;fill-rule:nonzero;stroke:none"
             id="path4087"
             inkscape:connector-curvature="0" /></g><g
           id="g4089"
           transform="translate(304.6807,290.6846)"><path
             d="m 0,0 -4.691,0 0,4.404 14.306,0 0,-4.404 -4.69,0 0,-14.099 -4.925,0 L 0,0 Z"
             style="fill:#f0492e;fill-opacity:1;fill-rule:nonzero;stroke:none"
             id="path4091"
             inkscape:connector-curvature="0" /></g><g
           id="g4093"
           transform="translate(330.9502,285.8379)"><path
             d="m 0,0 c 0,2.71 -1.799,4.898 -4.431,4.898 -2.605,0 -4.456,-2.163 -4.456,-4.898 0,-2.737 1.851,-4.899 4.456,-4.899 C -1.799,-4.899 0,-2.737 0,0 m -14.046,0 c 0,5.628 3.935,9.537 9.615,9.537 5.629,0 9.617,-3.856 9.617,-9.537 0,-5.655 -3.988,-9.512 -9.617,-9.512 -5.68,0 -9.615,3.883 -9.615,9.512"
             style="fill:#f0492e;fill-opacity:1;fill-rule:nonzero;stroke:none"
             id="path4095"
             inkscape:connector-curvature="0" /></g><g
           id="g4097"
           transform="translate(356.7246,295.0889)"><path
             d="m 0,0 0,-18.503 -5.133,0 -6.072,10.138 -0.052,0 0,-10.138 -4.926,0 0,18.503 4.978,0 6.177,-10.424 0.077,0 L -4.951,0 0,0 Z"
             style="fill:#f0492e;fill-opacity:1;fill-rule:nonzero;stroke:none"
             id="path4099"
             inkscape:connector-curvature="0" /></g><g
           id="g4101"
           transform="translate(264.7314,241.9785)"><path
             d="M 0,0 C 0,1.208 0.967,2.157 2.157,2.157 3.365,2.157 4.332,1.208 4.332,0 4.332,-1.19 3.365,-2.157 2.157,-2.157 0.967,-2.157 0,-1.19 0,0"
             style="fill:#f0492e;fill-opacity:1;fill-rule:nonzero;stroke:none"
             id="path4103"
             inkscape:connector-curvature="0" /></g><g
           id="g4105"
           transform="translate(278.3145,246.207)"><path
             d="m 0,0 -3.244,0 0,2.571 9.353,0 0,-2.571 -3.244,0 0,-9.682 L 0,-9.682 0,0 Z"
             style="fill:#f0492e;fill-opacity:1;fill-rule:nonzero;stroke:none"
             id="path4107"
             inkscape:connector-curvature="0" /></g><g
           id="g4109"
           transform="translate(295.2969,240.4775)"><path
             d="m 0,0 -0.052,0 -2.45,-3.952 -3.366,0 3.918,6.161 -3.779,6.092 3.313,0 2.364,-3.849 0.052,0 2.364,3.849 3.28,0 -3.746,-6.092 3.901,-6.161 -3.365,0 L 0,0 Z"
             style="fill:#f0492e;fill-opacity:1;fill-rule:nonzero;stroke:none"
             id="path4111"
             inkscape:connector-curvature="0" /></g><g
           id="g4113"
           transform="translate(306.9814,241.9785)"><path
             d="M 0,0 C 0,1.208 0.967,2.157 2.158,2.157 3.365,2.157 4.332,1.208 4.332,0 4.332,-1.19 3.365,-2.157 2.158,-2.157 0.967,-2.157 0,-1.19 0,0"
             style="fill:#f0492e;fill-opacity:1;fill-rule:nonzero;stroke:none"
             id="path4115"
             inkscape:connector-curvature="0" /></g><g
           id="g4117"
           transform="translate(288,476.5366)"><path
             d="m 0,0 c -103.962,0 -188.539,-84.577 -188.539,-188.535 0,-103.962 84.577,-188.539 188.539,-188.539 103.962,0 188.539,84.577 188.539,188.539 C 188.539,-84.577 103.962,0 0,0 m 0,-392.061 c -112.225,0 -203.526,91.302 -203.526,203.526 0,112.221 91.301,203.523 203.526,203.523 112.225,0 203.526,-91.302 203.526,-203.523 0,-112.224 -91.301,-203.526 -203.526,-203.526"
             style="fill:#f0492e;fill-opacity:1;fill-rule:nonzero;stroke:none"
             id="path4119"
             inkscape:connector-curvature="0" /></g><g
           id="g4121"
           transform="translate(288.6641,376.2817)"><path
             d="m 0,0 4.964,-15.275 16.061,0 -12.994,-9.441 4.963,-15.276 -12.994,9.441 -12.994,-9.441 4.964,15.276 -12.994,9.441 16.061,0 L 0,0 Z"
             style="fill:#f0492e;fill-opacity:1;fill-rule:nonzero;stroke:none"
             id="path4123"
             inkscape:connector-curvature="0" /></g></g></g></g></svg>