<?xml version="1.0" encoding="UTF-8" standalone="no"?>
<!-- Created with Inkscape (http://www.inkscape.org/) -->

<svg
   xmlns:dc="http://purl.org/dc/elements/1.1/"
   xmlns:cc="http://creativecommons.org/ns#"
   xmlns:rdf="http://www.w3.org/1999/02/22-rdf-syntax-ns#"
   xmlns:svg="http://www.w3.org/2000/svg"
   xmlns="http://www.w3.org/2000/svg"
   xmlns:sodipodi="http://sodipodi.sourceforge.net/DTD/sodipodi-0.dtd"
   xmlns:inkscape="http://www.inkscape.org/namespaces/inkscape"
   id="svg2"
   version="1.1"
   inkscape:version="0.91 r13725"
   xml:space="preserve"
   width="655.05847"
   height="604.7851"
   viewBox="0 0 655.05847 604.7851"
   sodipodi:docname="HCA_solo_acronym.ai.svg"
   inkscape:export-filename="/Users/user1/Desktop/Actual Damn Logos/hca.png"
   inkscape:export-xdpi="90"
   inkscape:export-ydpi="90"><metadata
     id="metadata8"><rdf:RDF><cc:Work
         rdf:about=""><dc:format>image/svg+xml</dc:format><dc:type
           rdf:resource="http://purl.org/dc/dcmitype/StillImage" /><dc:title></dc:title></cc:Work></rdf:RDF></metadata><defs
     id="defs6"><clipPath
       clipPathUnits="userSpaceOnUse"
       id="clipPath20"><path
         d="M 0,576 576,576 576,0 0,0 0,576 Z"
         id="path22"
         inkscape:connector-curvature="0" /></clipPath></defs><sodipodi:namedview
     pagecolor="#ffffff"
     bordercolor="#666666"
     borderopacity="1"
     objecttolerance="10"
     gridtolerance="10"
     guidetolerance="10"
     inkscape:pageopacity="0"
     inkscape:pageshadow="2"
     inkscape:window-width="733"
     inkscape:window-height="480"
     id="namedview4"
     showgrid="false"
     fit-margin-top="0"
     fit-margin-left="0"
     fit-margin-right="0"
     fit-margin-bottom="0"
     inkscape:zoom="0.32777778"
     inkscape:cx="327.52925"
     inkscape:cy="302.39288"
     inkscape:window-x="20"
     inkscape:window-y="43"
     inkscape:window-maximized="0"
     inkscape:current-layer="g10" /><g
     id="g10"
     inkscape:groupmode="layer"
     inkscape:label="HCA_solo_acronym"
     transform="matrix(1.25,0,0,-1.25,-32.47075,662.39225)"><g
       id="g12"
       transform="translate(150.2153,355.27)"><path
         d="m 0,0 26.864,0 0,-39.596 29.942,0 0,39.596 27.004,0 0,-99.339 -27.004,0 0,36.237 -29.942,0 0,-36.237 L 0,-99.339 0,0 Z"
         style="fill:#11455f;fill-opacity:1;fill-rule:nonzero;stroke:none"
         id="path14"
         inkscape:connector-curvature="0" /></g><g
       id="g16"><g
         id="g18"
         clip-path="url(#clipPath20)"><g
           id="g24"
           transform="translate(242.1572,305.4604)"><path
             d="m 0,0 c 0,28.263 18.749,51.349 51.909,51.349 13.571,0 29.242,-5.737 40.436,-19.308 L 72.896,15.39 C 68.698,20.148 61.143,25.744 51.909,25.744 39.596,25.744 27.983,16.79 27.983,0 c 0,-13.571 8.955,-25.324 23.926,-25.324 7.835,0 16.23,4.198 20.987,10.074 L 92.345,-32.041 C 83.81,-42.535 69.538,-50.929 51.909,-50.929 24.206,-50.929 0,-33.16 0,0"
             style="fill:#11455f;fill-opacity:1;fill-rule:nonzero;stroke:none"
             id="path26"
             inkscape:connector-curvature="0" /></g><g
           id="g28"
           transform="translate(395.5469,294.2671)"><path
             d="m 0,0 -8.954,28.682 -0.28,0 L -18.189,0 0,0 Z m 6.856,-22.247 -31.901,0 -5.037,-16.089 -27.843,0 36.098,99.339 25.465,0 35.959,-99.339 -27.703,0 -5.038,16.089 z"
             style="fill:#11455f;fill-opacity:1;fill-rule:nonzero;stroke:none"
             id="path30"
             inkscape:connector-curvature="0" /></g><g
           id="g32"
           transform="translate(469.7646,366.3892)"><path
             d="M 0,0 0,0 0,0 Z"
             style="fill:#f0492e;fill-opacity:1;fill-rule:nonzero;stroke:none"
             id="path34"
             inkscape:connector-curvature="0" /></g><g
           id="g36"
           transform="translate(469.7646,366.3887)"><path
             d="m 0,0 c 5.917,-18.539 9.046,-38.147 9.046,-58.278 0,-105.213 -85.599,-190.813 -190.812,-190.813 -105.213,0 -190.81,85.6 -190.81,190.813 0,65.928 33.392,126.32 89.32,161.551 l -37.951,60.252 c -76.757,-48.346 -122.581,-131.262 -122.581,-221.803 0,-144.481 117.544,-262.025 262.022,-262.025 40.185,0 78.272,9.118 112.34,25.355 C 24.658,-199.969 34.799,-84.727 0,0"
             style="fill:#f0492e;fill-opacity:1;fill-rule:nonzero;stroke:none"
             id="path38"
             inkscape:connector-curvature="0" /></g><g
           id="g40"
           transform="translate(550.0234,308.1108)"><path
             d="m 0,0 c 0,90.541 -45.824,173.457 -122.581,221.803 l -37.951,-60.252 c 38.85,-24.474 66.811,-61.095 80.273,-103.273 C -45.46,-26.449 -55.6,-141.691 -149.685,-236.67 -61.265,-194.531 0,-104.296 0,0"
             style="fill:#f9b2a7;fill-opacity:1;fill-rule:nonzero;stroke:none"
             id="path42"
             inkscape:connector-curvature="0" /></g></g></g></g></svg>