<?xml version="1.0" encoding="UTF-8" standalone="no"?>
<!-- Created with Inkscape (http://www.inkscape.org/) -->

<svg
   xmlns:dc="http://purl.org/dc/elements/1.1/"
   xmlns:cc="http://creativecommons.org/ns#"
   xmlns:rdf="http://www.w3.org/1999/02/22-rdf-syntax-ns#"
   xmlns:svg="http://www.w3.org/2000/svg"
   xmlns="http://www.w3.org/2000/svg"
   xmlns:sodipodi="http://sodipodi.sourceforge.net/DTD/sodipodi-0.dtd"
   xmlns:inkscape="http://www.inkscape.org/namespaces/inkscape"
   id="svg4303"
   version="1.1"
   inkscape:version="0.91 r13725"
   xml:space="preserve"
   width="508.815"
   height="508.81125"
   viewBox="0 0 508.815 508.81125"
   sodipodi:docname="sanantonio-stamp.svg"><metadata
     id="metadata4309"><rdf:RDF><cc:Work
         rdf:about=""><dc:format>image/svg+xml</dc:format><dc:type
           rdf:resource="http://purl.org/dc/dcmitype/StillImage" /><dc:title></dc:title></cc:Work></rdf:RDF></metadata><defs
     id="defs4307"><clipPath
       clipPathUnits="userSpaceOnUse"
       id="clipPath4317"><path
         d="M 0,576 576,576 576,0 0,0 0,576 Z"
         id="path4319"
         inkscape:connector-curvature="0" /></clipPath></defs><sodipodi:namedview
     pagecolor="#ffffff"
     bordercolor="#666666"
     borderopacity="1"
     objecttolerance="10"
     gridtolerance="10"
     guidetolerance="10"
     inkscape:pageopacity="0"
     inkscape:pageshadow="2"
     inkscape:window-width="1280"
     inkscape:window-height="757"
     id="namedview4305"
     showgrid="false"
     inkscape:zoom="0.32777778"
     inkscape:cx="254.4075"
     inkscape:cy="254.4055"
     inkscape:window-x="0"
     inkscape:window-y="0"
     inkscape:window-maximized="0"
     inkscape:current-layer="g4311"
     fit-margin-top="0"
     fit-margin-left="0"
     fit-margin-right="0"
     fit-margin-bottom="0" /><g
     id="g4311"
     inkscape:groupmode="layer"
     inkscape:label="ACA_city_specific_decals"
     transform="matrix(1.25,0,0,-1.25,-105.5925,614.40575)"><g
       id="g4313"><g
         id="g4315"
         clip-path="url(#clipPath4317)"><g
           id="g4321"
           transform="translate(288.3398,187.2939)"><path
             d="m 0,0 c -55.724,0 -101.057,45.34 -101.057,101.063 0,34.918 17.675,66.899 47.286,85.547 l 7.922,-12.573 c -25.262,-15.91 -40.341,-43.196 -40.341,-72.974 0,-47.53 38.667,-86.197 86.19,-86.197 47.53,0 86.197,38.667 86.197,86.197 0,29.778 -15.079,57.064 -40.342,72.974 l 7.923,12.573 C 83.389,167.962 101.063,135.981 101.063,101.063 101.063,45.34 55.724,0 0,0"
             style="fill:#81c99c;fill-opacity:1;fill-rule:nonzero;stroke:none"
             id="path4323"
             inkscape:connector-curvature="0" /></g><g
           id="g4325"
           transform="translate(160.9453,327.5034)"><path
             d="m 0,0 -3.521,6.558 c 3.567,1.28 5.874,3.601 6.77,5.743 1.061,2.534 0.327,3.971 -1.071,4.556 C 0.474,17.571 -0.727,16.789 -3.388,13.744 -6.98,9.701 -11.167,5.958 -17.241,8.5 c -5.156,2.159 -7.249,8.324 -4.977,13.998 1.657,4.083 4.724,7.113 8.582,9.093 l 3.681,-6.42 c -3.194,-1.744 -4.91,-3.388 -5.642,-5.136 -0.731,-1.748 -0.271,-3.225 1.215,-3.847 1.38,-0.628 2.555,0.215 5.292,3.075 4.384,4.584 7.564,8.132 13.639,5.59 C 11.847,21.798 11.859,14.346 9.774,9.364 8.11,5.387 4.817,1.938 0,0"
             style="fill:#81c99c;fill-opacity:1;fill-rule:nonzero;stroke:none"
             id="path4327"
             inkscape:connector-curvature="0" /></g><g
           id="g4329"
           transform="translate(177.2051,374.0723)"><path
             d="M 0,0 -11.31,3.73 -11.366,3.654 -4.405,-5.992 0,0 Z m 6.711,-2.229 -6.988,-9.503 3.696,-5.129 -4.911,-6.679 -19.8,29.848 4.49,6.107 34.449,-9.927 -4.911,-6.679 -6.025,1.962 z"
             style="fill:#81c99c;fill-opacity:1;fill-rule:nonzero;stroke:none"
             id="path4331"
             inkscape:connector-curvature="0" /></g><g
           id="g4333"
           transform="translate(199.5537,423.5806)"><path
             d="m 0,0 20.869,-26.379 -6.39,-5.056 -22.554,7.892 -0.036,-0.03 12.52,-15.828 -6.204,-4.908 -20.869,26.379 6.204,4.909 23.1,-8.124 L -6.205,-4.909 0,0 Z"
             style="fill:#81c99c;fill-opacity:1;fill-rule:nonzero;stroke:none"
             id="path4335"
             inkscape:connector-curvature="0" /></g><g
           id="g4337"
           transform="translate(251.2373,423.5386)"><path
             d="M 0,0 -6.802,9.776 -6.894,9.749 -7.122,-2.145 0,0 Z m 4.026,-5.813 -11.295,-3.401 -0.125,-6.321 -7.938,-2.39 2.097,35.758 7.257,2.185 L 15.604,-8.61 7.666,-11 4.026,-5.813 Z"
             style="fill:#81c99c;fill-opacity:1;fill-rule:nonzero;stroke:none"
             id="path4339"
             inkscape:connector-curvature="0" /></g><g
           id="g4341"
           transform="translate(298.8486,449.6611)"><path
             d="m 0,0 0.829,-33.625 -8.145,-0.201 -13.285,19.86 -0.047,-0.002 0.498,-20.174 -7.91,-0.195 -0.829,33.624 7.909,0.195 L -7.398,-20.891 -7.909,-0.195 0,0 Z"
             style="fill:#81c99c;fill-opacity:1;fill-rule:nonzero;stroke:none"
             id="path4343"
             inkscape:connector-curvature="0" /></g><g
           id="g4345"
           transform="translate(319.0723,439.2764)"><path
             d="M 0,0 -8.682,1.989 -7.105,8.87 17.924,3.135 16.347,-3.745 7.666,-1.756 1.731,-27.662 -5.935,-25.906 0,0 Z"
             style="fill:#81c99c;fill-opacity:1;fill-rule:nonzero;stroke:none"
             id="path4347"
             inkscape:connector-curvature="0" /></g><g
           id="g4349"
           transform="translate(362.4141,412.4707)"><path
             d="m 0,0 c 2.577,5.014 1.156,10.539 -3.479,12.921 -4.76,2.448 -10.083,0.283 -12.616,-4.647 -2.512,-4.888 -1.199,-10.517 3.563,-12.965 C -7.897,-7.073 -2.556,-4.972 0,0 m -23.427,12.042 c 4.636,9.017 14.185,12.152 23.327,7.452 8.933,-4.592 12.153,-14.078 7.431,-23.263 -4.7,-9.143 -14.31,-12.086 -23.242,-7.495 -9.144,4.701 -12.129,14.332 -7.516,23.306"
             style="fill:#81c99c;fill-opacity:1;fill-rule:nonzero;stroke:none"
             id="path4351"
             inkscape:connector-curvature="0" /></g><g
           id="g4353"
           transform="translate(410.29,394.7095)"><path
             d="m 0,0 -23.204,-24.35 -5.899,5.621 4.663,23.435 -0.035,0.033 -13.921,-14.61 -5.728,5.457 23.204,24.351 5.728,-5.458 L -20.009,-9.529 -5.727,5.458 0,0 Z"
             style="fill:#81c99c;fill-opacity:1;fill-rule:nonzero;stroke:none"
             id="path4355"
             inkscape:connector-curvature="0" /></g><g
           id="g4357"
           transform="translate(418.6719,383.3193)"><path
             d="m 0,0 4.568,-6.574 -27.616,-19.197 -4.569,6.574 L 0,0 Z"
             style="fill:#81c99c;fill-opacity:1;fill-rule:nonzero;stroke:none"
             id="path4359"
             inkscape:connector-curvature="0" /></g><g
           id="g4361"
           transform="translate(425.3955,335.0342)"><path
             d="m 0,0 c 5.208,2.159 7.694,7.293 5.699,12.106 -2.051,4.945 -7.51,6.733 -12.63,4.61 C -12.007,14.611 -14.643,9.467 -12.593,4.522 -10.597,-0.292 -5.163,-2.141 0,0 m -10.088,24.33 c 9.364,3.883 18.676,0.102 22.613,-9.393 3.846,-9.277 0.172,-18.596 -9.368,-22.551 -9.495,-3.937 -18.729,0.029 -22.576,9.306 -3.937,9.496 0.011,18.773 9.331,22.638"
             style="fill:#81c99c;fill-opacity:1;fill-rule:nonzero;stroke:none"
             id="path4363"
             inkscape:connector-curvature="0" /></g><g
           id="g4365"
           transform="translate(432.9268,302.5112)"><path
             d="m 0,0 c 9.616,-0.023 17.371,-6.295 17.344,-17.38 -0.011,-4.595 -1.966,-9.801 -6.523,-13.533 l -4.913,5.838 c 1.946,1.607 3.896,4.397 3.904,7.713 0.012,4.926 -3.625,9.057 -9.832,9.072 -5.305,0.013 -9.578,-3.577 -9.59,-9.025 -0.008,-3.032 1.595,-5.925 3.818,-7.73 l -4.988,-5.816 c -3.594,2.899 -6.425,7.596 -6.41,13.565 C -17.168,-8.012 -11.132,0.027 0,0"
             style="fill:#81c99c;fill-opacity:1;fill-rule:nonzero;stroke:none"
             id="path4367"
             inkscape:connector-curvature="0" /></g><g
           id="g4369"
           transform="translate(424.5801,238.3486)"><path
             d="M 0,0 C 5.408,-1.59 10.568,0.845 12.037,5.844 13.546,10.98 10.42,15.8 5.103,17.362 -0.17,18.912 -5.452,16.563 -6.962,11.428 -8.431,6.428 -5.363,1.576 0,0 M 7.427,25.271 C 17.153,22.412 22.026,13.623 19.128,3.76 16.296,-5.875 7.584,-10.821 -2.324,-7.909 c -9.864,2.898 -14.56,11.784 -11.729,21.42 2.899,9.863 11.798,14.605 21.48,11.76"
             style="fill:#81c99c;fill-opacity:1;fill-rule:nonzero;stroke:none"
             id="path4371"
             inkscape:connector-curvature="0" /></g><g
           id="g4373"
           transform="translate(403.2861,217.2129)"><path
             d="m 0,0 c -3.129,-4.859 -1.595,-10.354 2.986,-13.303 4.741,-3.051 10.324,-2.081 13.118,2.261 L 18.283,-7.655 1.871,2.908 0,0 Z m 28.45,-4.902 -6.307,-9.801 c -5.77,-8.963 -15.252,-10.916 -23.619,-5.531 -8.325,5.358 -10.639,14.455 -4.743,23.617 L 0.166,13.302 28.45,-4.902 Z"
             style="fill:#81c99c;fill-opacity:1;fill-rule:nonzero;stroke:none"
             id="path4375"
             inkscape:connector-curvature="0" /></g><g
           id="g4377"
           transform="translate(407.2578,178.5723)"><path
             d="m 0,0 -5.558,-5.764 -24.211,23.35 5.557,5.763 L 0,0 Z"
             style="fill:#81c99c;fill-opacity:1;fill-rule:nonzero;stroke:none"
             id="path4379"
             inkscape:connector-curvature="0" /></g><g
           id="g4381"
           transform="translate(367.7705,146.5107)"><path
             d="m 0,0 -19.035,27.73 6.718,4.612 L 9.649,22.941 9.688,22.969 -1.732,39.606 4.79,44.084 23.825,16.354 17.302,11.876 -5.193,21.545 6.522,4.477 0,0 Z"
             style="fill:#81c99c;fill-opacity:1;fill-rule:nonzero;stroke:none"
             id="path4383"
             inkscape:connector-curvature="0" /></g><g
           id="g4385"
           transform="translate(349.3096,155.7939)"><path
             d="m 0,0 c 3.108,-9.25 -0.449,-18.442 -10.643,-21.867 -4.58,-1.539 -10.258,-1.299 -14.803,1.372 l 3.834,6.285 c 2.205,-1.058 5.232,-1.739 8.645,-0.593 4.49,1.51 7.146,6.25 5.154,12.178 -1.736,5.163 -6.387,8.298 -11.776,6.487 -1.887,-0.633 -3.457,-1.612 -4.966,-3.218 l 1.223,-3.637 6.106,2.052 2.128,-6.331 -13.336,-4.483 -4.814,14.325 c 2.074,3.196 6.411,6.502 11.351,8.162 C -12.692,13.826 -3.486,10.373 0,0"
             style="fill:#81c99c;fill-opacity:1;fill-rule:nonzero;stroke:none"
             id="path4387"
             inkscape:connector-curvature="0" /></g><g
           id="g4389"
           transform="translate(276.6904,147.71)"><path
             d="M 0,0 3.06,-11.51 3.154,-11.516 7.426,-0.413 0,0 Z m -1.803,6.838 11.779,-0.656 2.274,5.899 8.277,-0.46 -14.168,-32.899 -7.568,0.422 -10.522,34.273 8.277,-0.461 1.651,-6.118 z"
             style="fill:#81c99c;fill-opacity:1;fill-rule:nonzero;stroke:none"
             id="path4391"
             inkscape:connector-curvature="0" /></g><g
           id="g4393"
           transform="translate(258.9805,145.4893)"><path
             d="m 0,0 c -2.904,-9.168 -11.213,-14.685 -21.78,-11.336 -4.38,1.388 -8.762,4.814 -10.955,10.279 l 7.043,2.937 c 0.948,-2.338 3.026,-5.034 6.187,-6.036 4.696,-1.488 9.728,0.744 11.603,6.66 1.602,5.058 -0.542,10.21 -5.736,11.856 -2.89,0.916 -6.132,0.253 -8.52,-1.325 l -4.052,6.501 c 3.842,2.56 9.172,3.853 14.862,2.05 C -2.496,18.78 3.363,10.613 0,0"
             style="fill:#81c99c;fill-opacity:1;fill-rule:nonzero;stroke:none"
             id="path4395"
             inkscape:connector-curvature="0" /></g><g
           id="g4397"
           transform="translate(209.1396,171.6445)"><path
             d="m 0,0 -3.03,-11.518 0.079,-0.05 L 6.25,-4.03 0,0 Z m 1.813,6.834 9.914,-6.393 4.893,4.004 6.967,-4.492 -28.579,-21.591 -6.369,4.107 7.797,34.992 6.966,-4.492 -1.589,-6.135 z"
             style="fill:#81c99c;fill-opacity:1;fill-rule:nonzero;stroke:none"
             id="path4399"
             inkscape:connector-curvature="0" /></g><g
           id="g4401"
           transform="translate(189.918,195.54)"><path
             d="m 0,0 c -3.877,4.287 -9.581,4.238 -13.622,0.585 -4.182,-3.781 -4.7,-9.424 -1.236,-13.254 l 2.7,-2.987 L 2.319,-2.565 0,0 Z m -12.151,-26.188 -7.817,8.644 c -7.149,7.906 -6.562,17.57 0.818,24.243 7.343,6.641 16.728,6.504 24.036,-1.578 l 7.912,-8.75 -24.949,-22.559 z"
             style="fill:#81c99c;fill-opacity:1;fill-rule:nonzero;stroke:none"
             id="path4403"
             inkscape:connector-curvature="0" /></g><g
           id="g4405"
           transform="translate(150.7168,202.6201)"><path
             d="m 0,0 -10.272,19.381 6.237,3.306 6.634,-12.516 5.692,3.017 -5.236,9.878 6.153,3.262 5.236,-9.879 5.4,2.863 -7.1,13.394 6.237,3.306 L 29.72,15.753 0,0 Z"
             style="fill:#81c99c;fill-opacity:1;fill-rule:nonzero;stroke:none"
             id="path4407"
             inkscape:connector-curvature="0" /></g><g
           id="g4409"
           transform="translate(126.9063,270.082)"><path
             d="m 0,0 32.851,7.211 1.686,-7.682 -18.138,-3.98 0.021,-0.093 13.585,-4.002 1.087,-4.951 -10.614,-9.314 0.02,-0.092 18.092,3.971 1.685,-7.68 -32.851,-7.211 -1.706,7.773 15.396,12.934 -0.02,0.093 L 1.706,-7.773 0,0 Z"
             style="fill:#81c99c;fill-opacity:1;fill-rule:nonzero;stroke:none"
             id="path4411"
             inkscape:connector-curvature="0" /></g><g
           id="g4413"
           transform="translate(128.0947,313.041)"><path
             d="m 0,0 18.27,-12.245 14.609,-0.911 -0.499,-7.99 -14.609,0.91 -19.643,-9.786 0.563,9.03 11.477,5.17 0.011,0.189 -10.75,6.461 L 0,0 Z"
             style="fill:#81c99c;fill-opacity:1;fill-rule:nonzero;stroke:none"
             id="path4415"
             inkscape:connector-curvature="0" /></g><g
           id="g4417"
           transform="translate(260.8047,296.8047)"><path
             d="M 0,0 2.784,3.403 C 4.229,1.934 5.827,1.366 6.961,1.366 c 1.135,0 1.573,0.619 1.573,1.186 0,0.722 -0.361,1.109 -2.32,1.754 -2.785,0.954 -5.569,2.295 -5.569,6.033 0,3.12 2.603,5.466 6.11,5.543 2.526,0.052 4.769,-0.927 6.472,-2.449 L 10.52,9.952 c -1.599,1.238 -2.579,1.651 -3.481,1.651 -0.877,0 -1.29,-0.439 -1.29,-1.083 0,-0.619 0.387,-1.109 2.243,-1.831 C 11.241,7.451 13.69,6.652 13.69,3.12 13.69,-1.47 9.849,-2.939 6.78,-2.939 4.408,-2.939 1.959,-2.011 0,0"
             style="fill:#81c99c;fill-opacity:1;fill-rule:nonzero;stroke:none"
             id="path4419"
             inkscape:connector-curvature="0" /></g><g
           id="g4421"
           transform="translate(287.7754,301.1875)"><path
             d="m 0,0 -1.65,5.286 -0.052,0 L -3.353,0 0,0 Z m 1.263,-4.1 -5.878,0 -0.929,-2.964 -5.131,0 6.653,18.306 4.692,0 6.626,-18.306 -5.105,0 -0.928,2.964 z"
             style="fill:#81c99c;fill-opacity:1;fill-rule:nonzero;stroke:none"
             id="path4423"
             inkscape:connector-curvature="0" /></g><g
           id="g4425"
           transform="translate(314.6436,312.4292)"><path
             d="m 0,0 0,-18.306 -5.08,0 -6.007,10.03 -0.052,0 0,-10.03 -4.873,0 0,18.306 4.925,0 6.11,-10.313 0.078,0 L -4.899,0 0,0 Z"
             style="fill:#81c99c;fill-opacity:1;fill-rule:nonzero;stroke:none"
             id="path4427"
             inkscape:connector-curvature="0" /></g><g
           id="g4429"
           transform="translate(232.916,269.7617)"><path
             d="m 0,0 -1.649,5.285 -0.052,0 L -3.352,0 0,0 Z m 1.264,-4.1 -5.879,0 -0.928,-2.965 -5.131,0 6.653,18.306 4.692,0 6.626,-18.306 -5.105,0 -0.928,2.965 z"
             style="fill:#81c99c;fill-opacity:1;fill-rule:nonzero;stroke:none"
             id="path4431"
             inkscape:connector-curvature="0" /></g><g
           id="g4433"
           transform="translate(259.7842,281.0029)"><path
             d="m 0,0 0,-18.307 -5.079,0 -6.008,10.031 -0.052,0 0,-10.031 -4.873,0 0,18.307 4.925,0 6.11,-10.313 0.079,0 L -4.898,0 0,0 Z"
             style="fill:#81c99c;fill-opacity:1;fill-rule:nonzero;stroke:none"
             id="path4435"
             inkscape:connector-curvature="0" /></g><g
           id="g4437"
           transform="translate(268.501,276.6455)"><path
             d="m 0,0 -4.642,0 0,4.357 14.156,0 0,-4.357 -4.641,0 0,-13.949 -4.873,0 L 0,0 Z"
             style="fill:#81c99c;fill-opacity:1;fill-rule:nonzero;stroke:none"
             id="path4439"
             inkscape:connector-curvature="0" /></g><g
           id="g4441"
           transform="translate(294.4922,271.8496)"><path
             d="m 0,0 c 0,2.682 -1.779,4.848 -4.384,4.848 -2.578,0 -4.409,-2.14 -4.409,-4.848 0,-2.707 1.831,-4.847 4.409,-4.847 C -1.779,-4.847 0,-2.707 0,0 m -13.897,0 c 0,5.569 3.892,9.438 9.513,9.438 5.57,0 9.515,-3.817 9.515,-9.438 0,-5.595 -3.945,-9.411 -9.515,-9.411 -5.621,0 -9.513,3.842 -9.513,9.411"
             style="fill:#81c99c;fill-opacity:1;fill-rule:nonzero;stroke:none"
             id="path4443"
             inkscape:connector-curvature="0" /></g><g
           id="g4445"
           transform="translate(319.9941,281.0029)"><path
             d="m 0,0 0,-18.307 -5.08,0 -6.007,10.031 -0.052,0 0,-10.031 -4.873,0 0,18.307 4.925,0 6.11,-10.313 0.078,0 L -4.899,0 0,0 Z"
             style="fill:#81c99c;fill-opacity:1;fill-rule:nonzero;stroke:none"
             id="path4447"
             inkscape:connector-curvature="0" /></g><path
           d="m 325.074,281.003 4.977,0 0,-18.307 -4.977,0 0,18.307 z"
           style="fill:#81c99c;fill-opacity:1;fill-rule:nonzero;stroke:none"
           id="path4449"
           inkscape:connector-curvature="0" /><g
           id="g4451"
           transform="translate(348.4346,271.8496)"><path
             d="m 0,0 c 0,2.682 -1.778,4.848 -4.383,4.848 -2.578,0 -4.409,-2.14 -4.409,-4.848 0,-2.707 1.831,-4.847 4.409,-4.847 C -1.778,-4.847 0,-2.707 0,0 m -13.897,0 c 0,5.569 3.893,9.438 9.514,9.438 5.57,0 9.514,-3.817 9.514,-9.438 0,-5.595 -3.944,-9.411 -9.514,-9.411 -5.621,0 -9.514,3.842 -9.514,9.411"
             style="fill:#81c99c;fill-opacity:1;fill-rule:nonzero;stroke:none"
             id="path4453"
             inkscape:connector-curvature="0" /></g><g
           id="g4455"
           transform="translate(264.7314,234.7812)"><path
             d="M 0,0 C 0,1.208 0.967,2.157 2.157,2.157 3.365,2.157 4.332,1.208 4.332,0 4.332,-1.191 3.365,-2.157 2.157,-2.157 0.967,-2.157 0,-1.191 0,0"
             style="fill:#81c99c;fill-opacity:1;fill-rule:nonzero;stroke:none"
             id="path4457"
             inkscape:connector-curvature="0" /></g><g
           id="g4459"
           transform="translate(278.3145,239.0098)"><path
             d="m 0,0 -3.244,0 0,2.571 9.353,0 0,-2.571 -3.244,0 0,-9.683 L 0,-9.683 0,0 Z"
             style="fill:#81c99c;fill-opacity:1;fill-rule:nonzero;stroke:none"
             id="path4461"
             inkscape:connector-curvature="0" /></g><g
           id="g4463"
           transform="translate(295.2969,233.2793)"><path
             d="m 0,0 -0.052,0 -2.45,-3.952 -3.366,0 3.918,6.161 -3.779,6.093 3.313,0 2.364,-3.849 0.052,0 2.364,3.849 3.28,0 -3.746,-6.093 3.901,-6.161 -3.365,0 L 0,0 Z"
             style="fill:#81c99c;fill-opacity:1;fill-rule:nonzero;stroke:none"
             id="path4465"
             inkscape:connector-curvature="0" /></g><g
           id="g4467"
           transform="translate(306.9814,234.7812)"><path
             d="M 0,0 C 0,1.208 0.967,2.157 2.158,2.157 3.365,2.157 4.332,1.208 4.332,0 4.332,-1.191 3.365,-2.157 2.158,-2.157 0.967,-2.157 0,-1.191 0,0"
             style="fill:#81c99c;fill-opacity:1;fill-rule:nonzero;stroke:none"
             id="path4469"
             inkscape:connector-curvature="0" /></g><g
           id="g4471"
           transform="translate(288,476.5366)"><path
             d="m 0,0 c -103.962,0 -188.539,-84.577 -188.539,-188.535 0,-103.962 84.577,-188.539 188.539,-188.539 103.962,0 188.539,84.577 188.539,188.539 C 188.539,-84.577 103.962,0 0,0 m 0,-392.061 c -112.225,0 -203.526,91.302 -203.526,203.526 0,112.221 91.301,203.523 203.526,203.523 112.225,0 203.526,-91.302 203.526,-203.523 0,-112.224 -91.301,-203.526 -203.526,-203.526"
             style="fill:#81c99c;fill-opacity:1;fill-rule:nonzero;stroke:none"
             id="path4473"
             inkscape:connector-curvature="0" /></g><g
           id="g4475"
           transform="translate(288.6641,376.2817)"><path
             d="m 0,0 4.964,-15.275 16.061,0 -12.994,-9.441 4.963,-15.276 -12.994,9.441 -12.994,-9.441 4.964,15.276 -12.994,9.441 16.061,0 L 0,0 Z"
             style="fill:#81c99c;fill-opacity:1;fill-rule:nonzero;stroke:none"
             id="path4477"
             inkscape:connector-curvature="0" /></g></g></g></g></svg>