<?xml version="1.0" encoding="UTF-8" standalone="no"?>
<!-- Created with Inkscape (http://www.inkscape.org/) -->

<svg
   xmlns:dc="http://purl.org/dc/elements/1.1/"
   xmlns:cc="http://creativecommons.org/ns#"
   xmlns:rdf="http://www.w3.org/1999/02/22-rdf-syntax-ns#"
   xmlns:svg="http://www.w3.org/2000/svg"
   xmlns="http://www.w3.org/2000/svg"
   xmlns:sodipodi="http://sodipodi.sourceforge.net/DTD/sodipodi-0.dtd"
   xmlns:inkscape="http://www.inkscape.org/namespaces/inkscape"
   id="svg2"
   version="1.1"
   inkscape:version="0.91 r13725"
   xml:space="preserve"
   width="654.89777"
   height="604.63751"
   viewBox="0 0 654.89777 604.63751"
   sodipodi:docname="sanantonio-logo-white-bg.svg"
   inkscape:export-filename="/Users/user1/Desktop/Actual Damn Logos/saca.png"
   inkscape:export-xdpi="90"
   inkscape:export-ydpi="90"><metadata
     id="metadata8"><rdf:RDF><cc:Work
         rdf:about=""><dc:format>image/svg+xml</dc:format><dc:type
           rdf:resource="http://purl.org/dc/dcmitype/StillImage" /><dc:title></dc:title></cc:Work></rdf:RDF></metadata><defs
     id="defs6"><clipPath
       clipPathUnits="userSpaceOnUse"
       id="clipPath20"><path
         d="M 0,576 576,576 576,0 0,0 0,576 Z"
         id="path22"
         inkscape:connector-curvature="0" /></clipPath></defs><sodipodi:namedview
     pagecolor="#ffffff"
     bordercolor="#666666"
     borderopacity="1"
     objecttolerance="10"
     gridtolerance="10"
     guidetolerance="10"
     inkscape:pageopacity="0"
     inkscape:pageshadow="2"
     inkscape:window-width="950"
     inkscape:window-height="755"
     id="namedview4"
     showgrid="false"
     fit-margin-top="0"
     fit-margin-left="0"
     fit-margin-right="0"
     fit-margin-bottom="0"
     inkscape:zoom="0.32777778"
     inkscape:cx="318.75796"
     inkscape:cy="180.32433"
     inkscape:window-x="20"
     inkscape:window-y="43"
     inkscape:window-maximized="0"
     inkscape:current-layer="g10"
     inkscape:snap-bbox="true"
     inkscape:bbox-paths="true"
     inkscape:bbox-nodes="true" /><g
     id="g10"
     inkscape:groupmode="layer"
     inkscape:label="SACA_solo_acronym"
     transform="matrix(1.25,0,0,-1.25,-32.0895,662.27925)"><rect
       style="fill:#ffffff"
       id="rect3353"
       width="532.06781"
       height="483.71002"
       x="25.6716"
       y="-529.82343"
       transform="scale(1,-1)" /><g
       id="g12"
       transform="translate(469.3509,366.3387)"><path
         d="M 0,0 0.001,0 0,0 Z"
         style="fill:#7fc99b;fill-opacity:1;fill-rule:nonzero;stroke:none"
         id="path14"
         inkscape:connector-curvature="0" /></g><g
       id="g16"><g
         id="g18"
         clip-path="url(#clipPath20)"><g
           id="g24"
           transform="translate(469.3516,366.3384)"><path
             d="m 0,0 c 5.915,-18.535 9.044,-38.139 9.044,-58.264 0,-105.188 -85.578,-190.766 -190.766,-190.766 -105.188,0 -190.763,85.578 -190.763,190.766 0,65.912 33.383,126.289 89.298,161.512 l -37.942,60.237 C -397.868,115.15 -443.68,32.255 -443.68,-58.264 c 0,-144.445 117.515,-261.961 261.958,-261.961 40.174,0 78.253,9.116 112.313,25.348 C 24.652,-199.92 34.79,-84.707 0,0"
             style="fill:#7fc99b;fill-opacity:1;fill-rule:nonzero;stroke:none"
             id="path26"
             inkscape:connector-curvature="0" /></g><g
           id="g28"
           transform="translate(549.5898,308.0742)"><path
             d="m 0,0 c 0,90.519 -45.813,173.415 -122.551,221.749 l -37.942,-60.237 c 38.842,-24.468 66.795,-61.08 80.254,-103.247 34.79,-84.707 24.653,-199.92 -69.408,-294.878 C -61.25,-194.483 0,-104.271 0,0"
             style="fill:#b3ddc0;fill-opacity:1;fill-rule:nonzero;stroke:none"
             id="path30"
             inkscape:connector-curvature="0" /></g><g
           id="g32"
           transform="translate(469.7646,366.3892)"><path
             d="M 0,0 0,0 0,0 Z"
             style="fill:#00b7d3;fill-opacity:1;fill-rule:nonzero;stroke:none"
             id="path34"
             inkscape:connector-curvature="0" /></g><g
           id="g36"
           transform="translate(121.4858,275.0957)"><path
             d="M 0,0 14.111,17.238 C 21.417,9.794 29.52,6.923 35.262,6.923 c 5.753,0 7.965,3.138 7.965,6.008 0,3.658 -1.829,5.615 -11.75,8.88 -14.101,4.838 -28.212,11.623 -28.212,30.562 0,15.801 13.196,27.685 30.955,28.078 12.793,0.26 24.16,-4.7 32.784,-12.404 L 53.287,50.416 c -8.093,6.269 -13.059,8.358 -17.632,8.358 -4.445,0 -6.529,-2.223 -6.529,-5.487 0,-3.137 1.957,-5.615 11.357,-9.273 C 56.944,37.75 69.354,33.699 69.354,15.802 69.354,-7.443 49.894,-14.887 34.348,-14.887 22.331,-14.887 9.932,-10.187 0,0"
             style="fill:#004768;fill-opacity:1;fill-rule:nonzero;stroke:none"
             id="path38"
             inkscape:connector-curvature="0" /></g><g
           id="g40"
           transform="translate(243.8892,297.2998)"><path
             d="m 0,0 -8.358,26.776 -0.267,0 L -16.982,0 0,0 Z m 6.401,-20.769 -29.775,0 -4.71,-15.014 -25.99,0 33.699,92.722 23.767,0 33.561,-92.722 -25.851,0 -4.701,15.014 z"
             style="fill:#004768;fill-opacity:1;fill-rule:nonzero;stroke:none"
             id="path42"
             inkscape:connector-curvature="0" /></g><g
           id="g44"
           transform="translate(275.9482,307.7529)"><path
             d="m 0,0 c 0,26.377 17.503,47.927 48.458,47.927 12.665,0 27.298,-5.36 37.74,-18.025 L 68.046,14.366 C 64.133,18.801 57.072,24.027 48.458,24.027 36.963,24.027 26.127,15.664 26.127,0 c 0,-12.676 8.358,-23.64 22.331,-23.64 7.316,0 15.144,3.914 19.588,9.401 L 86.198,-29.913 C 78.233,-39.707 64.909,-47.544 48.458,-47.544 22.597,-47.544 0,-30.955 0,0"
             style="fill:#004768;fill-opacity:1;fill-rule:nonzero;stroke:none"
             id="path46"
             inkscape:connector-curvature="0" /></g><g
           id="g48"
           transform="translate(418.0918,297.2998)"><path
             d="m 0,0 -8.358,26.776 -0.267,0 L -16.982,0 0,0 Z m 6.401,-20.769 -29.775,0 -4.711,-15.014 -25.989,0 33.699,92.722 23.767,0 33.56,-92.722 -25.85,0 -4.701,15.014 z"
             style="fill:#004768;fill-opacity:1;fill-rule:nonzero;stroke:none"
             id="path50"
             inkscape:connector-curvature="0" /></g></g></g></g></svg>